%TF.GenerationSoftware,KiCad,Pcbnew,10.0.0*%
%TF.CreationDate,2026-09-21T22:47:25+05:30*%
%TF.ProjectId,LineFollowerGOAT,4c696e65-466f-46c6-9c6f-776572474f41,rev?*%
%TF.SameCoordinates,Original*%
%TF.FileFunction,Soldermask,Bot*%
%TF.FilePolarity,Negative*%
%FSLAX46Y46*%
G04 Gerber Fmt 4.6, Leading zero omitted, Abs format (unit mm)*
G04 Created by KiCad (PCBNEW 10.0.0) date 2026-09-21 22:47:25*
%MOMM*%
%LPD*%
G01*
G04 APERTURE LIST*
G04 Aperture macros list*
%AMRoundRect*
0 Rectangle with rounded corners*
0 $1 Rounding radius*
0 $2 $3 $4 $5 $6 $7 $8 $9 X,Y pos of 4 corners*
0 Add a 4 corners polygon primitive as box body*
4,1,4,$2,$3,$4,$5,$6,$7,$8,$9,$2,$3,0*
0 Add four circle primitives for the rounded corners*
1,1,$1+$1,$2,$3*
1,1,$1+$1,$4,$5*
1,1,$1+$1,$6,$7*
1,1,$1+$1,$8,$9*
0 Add four rect primitives between the rounded corners*
20,1,$1+$1,$2,$3,$4,$5,0*
20,1,$1+$1,$4,$5,$6,$7,0*
20,1,$1+$1,$6,$7,$8,$9,0*
20,1,$1+$1,$8,$9,$2,$3,0*%
%AMFreePoly0*
4,1,23,0.500000,-0.750000,0.000000,-0.750000,0.000000,-0.745722,-0.065263,-0.745722,-0.191342,-0.711940,-0.304381,-0.646677,-0.396677,-0.554381,-0.461940,-0.441342,-0.495722,-0.315263,-0.495722,-0.250000,-0.500000,-0.250000,-0.500000,0.250000,-0.495722,0.250000,-0.495722,0.315263,-0.461940,0.441342,-0.396677,0.554381,-0.304381,0.646677,-0.191342,0.711940,-0.065263,0.745722,0.000000,0.745722,
0.000000,0.750000,0.500000,0.750000,0.500000,-0.750000,0.500000,-0.750000,$1*%
%AMFreePoly1*
4,1,23,0.000000,0.745722,0.065263,0.745722,0.191342,0.711940,0.304381,0.646677,0.396677,0.554381,0.461940,0.441342,0.495722,0.315263,0.495722,0.250000,0.500000,0.250000,0.500000,-0.250000,0.495722,-0.250000,0.495722,-0.315263,0.461940,-0.441342,0.396677,-0.554381,0.304381,-0.646677,0.191342,-0.711940,0.065263,-0.745722,0.000000,-0.745722,0.000000,-0.750000,-0.500000,-0.750000,
-0.500000,0.750000,0.000000,0.750000,0.000000,0.745722,0.000000,0.745722,$1*%
G04 Aperture macros list end*
%ADD10C,1.804000*%
%ADD11C,2.500000*%
%ADD12C,1.000000*%
%ADD13RoundRect,0.237500X0.250000X0.237500X-0.250000X0.237500X-0.250000X-0.237500X0.250000X-0.237500X0*%
%ADD14C,3.000000*%
%ADD15RoundRect,0.237500X0.237500X-0.250000X0.237500X0.250000X-0.237500X0.250000X-0.237500X-0.250000X0*%
%ADD16RoundRect,0.250000X0.625000X-0.350000X0.625000X0.350000X-0.625000X0.350000X-0.625000X-0.350000X0*%
%ADD17O,1.750000X1.200000*%
%ADD18RoundRect,0.750000X0.750000X0.750000X-0.750000X0.750000X-0.750000X-0.750000X0.750000X-0.750000X0*%
%ADD19O,2.500000X1.500000*%
%ADD20C,0.500000*%
%ADD21RoundRect,0.250000X-0.625000X0.350000X-0.625000X-0.350000X0.625000X-0.350000X0.625000X0.350000X0*%
%ADD22RoundRect,0.250000X-0.550000X-0.550000X0.550000X-0.550000X0.550000X0.550000X-0.550000X0.550000X0*%
%ADD23C,1.600000*%
%ADD24RoundRect,0.750000X-0.750000X-0.750000X0.750000X-0.750000X0.750000X0.750000X-0.750000X0.750000X0*%
%ADD25R,1.700000X1.700000*%
%ADD26C,1.700000*%
%ADD27R,1.350000X1.350000*%
%ADD28C,1.350000*%
%ADD29RoundRect,0.750000X-0.750000X0.750000X-0.750000X-0.750000X0.750000X-0.750000X0.750000X0.750000X0*%
%ADD30RoundRect,0.250000X0.550000X0.550000X-0.550000X0.550000X-0.550000X-0.550000X0.550000X-0.550000X0*%
%ADD31C,0.650000*%
%ADD32O,1.000000X2.100000*%
%ADD33O,1.000000X1.600000*%
%ADD34C,1.524000*%
%ADD35RoundRect,0.237500X-0.237500X0.250000X-0.237500X-0.250000X0.237500X-0.250000X0.237500X0.250000X0*%
%ADD36RoundRect,0.237500X0.237500X-0.300000X0.237500X0.300000X-0.237500X0.300000X-0.237500X-0.300000X0*%
%ADD37RoundRect,0.250000X-0.325000X-0.450000X0.325000X-0.450000X0.325000X0.450000X-0.325000X0.450000X0*%
%ADD38RoundRect,0.237500X0.300000X0.237500X-0.300000X0.237500X-0.300000X-0.237500X0.300000X-0.237500X0*%
%ADD39RoundRect,0.249999X0.450001X1.850001X-0.450001X1.850001X-0.450001X-1.850001X0.450001X-1.850001X0*%
%ADD40RoundRect,0.237500X-0.300000X-0.237500X0.300000X-0.237500X0.300000X0.237500X-0.300000X0.237500X0*%
%ADD41RoundRect,0.237500X-0.250000X-0.237500X0.250000X-0.237500X0.250000X0.237500X-0.250000X0.237500X0*%
%ADD42RoundRect,0.250000X0.450000X-0.325000X0.450000X0.325000X-0.450000X0.325000X-0.450000X-0.325000X0*%
%ADD43RoundRect,0.150000X0.150000X-0.512500X0.150000X0.512500X-0.150000X0.512500X-0.150000X-0.512500X0*%
%ADD44RoundRect,0.150000X0.875000X0.150000X-0.875000X0.150000X-0.875000X-0.150000X0.875000X-0.150000X0*%
%ADD45RoundRect,0.250000X1.500000X0.650000X-1.500000X0.650000X-1.500000X-0.650000X1.500000X-0.650000X0*%
%ADD46RoundRect,0.249999X-0.450001X-1.850001X0.450001X-1.850001X0.450001X1.850001X-0.450001X1.850001X0*%
%ADD47RoundRect,0.237500X-0.237500X0.300000X-0.237500X-0.300000X0.237500X-0.300000X0.237500X0.300000X0*%
%ADD48RoundRect,0.375000X0.375000X-0.625000X0.375000X0.625000X-0.375000X0.625000X-0.375000X-0.625000X0*%
%ADD49RoundRect,0.500000X1.400000X-0.500000X1.400000X0.500000X-1.400000X0.500000X-1.400000X-0.500000X0*%
%ADD50RoundRect,0.375000X-0.625000X-0.375000X0.625000X-0.375000X0.625000X0.375000X-0.625000X0.375000X0*%
%ADD51RoundRect,0.500000X-0.500000X-1.400000X0.500000X-1.400000X0.500000X1.400000X-0.500000X1.400000X0*%
%ADD52RoundRect,0.375000X-0.375000X0.625000X-0.375000X-0.625000X0.375000X-0.625000X0.375000X0.625000X0*%
%ADD53RoundRect,0.500000X-1.400000X0.500000X-1.400000X-0.500000X1.400000X-0.500000X1.400000X0.500000X0*%
%ADD54RoundRect,0.250000X0.650000X-1.500000X0.650000X1.500000X-0.650000X1.500000X-0.650000X-1.500000X0*%
%ADD55FreePoly0,270.000000*%
%ADD56FreePoly1,270.000000*%
G04 APERTURE END LIST*
%TO.C,JP3*%
G36*
X96450000Y-135840000D02*
G01*
X97950000Y-135840000D01*
X97950000Y-136140000D01*
X96450000Y-136140000D01*
X96450000Y-135840000D01*
G37*
%TD*%
D10*
%TO.C,U10*%
X120854601Y-67511833D03*
X123394601Y-67511833D03*
X123394601Y-73011833D03*
X120854601Y-73011833D03*
D11*
X124024601Y-70261833D03*
X120224601Y-70261833D03*
D12*
X124574601Y-74911833D03*
%TD*%
D13*
%TO.C,R73*%
X128956768Y-65712500D03*
X130781768Y-65712500D03*
%TD*%
%TO.C,R74*%
X128866768Y-74872500D03*
X130691768Y-74872500D03*
%TD*%
D10*
%TO.C,U11*%
X128869268Y-67532500D03*
X131409268Y-67532500D03*
X131409268Y-73032500D03*
X128869268Y-73032500D03*
D11*
X132039268Y-70282500D03*
X128239268Y-70282500D03*
D12*
X132589268Y-74932500D03*
%TD*%
D13*
%TO.C,R70*%
X120846768Y-65652500D03*
X122671768Y-65652500D03*
%TD*%
D14*
%TO.C,H5*%
X83430000Y-90850000D03*
%TD*%
D13*
%TO.C,R80*%
X203187500Y-123840000D03*
X205012500Y-123840000D03*
%TD*%
D10*
%TO.C,U18*%
X203290000Y-116460000D03*
X205830000Y-116460000D03*
X205830000Y-121960000D03*
X203290000Y-121960000D03*
D11*
X206460000Y-119210000D03*
X202660000Y-119210000D03*
D12*
X207010000Y-123860000D03*
%TD*%
D15*
%TO.C,R81*%
X200420000Y-121997500D03*
X200420000Y-123822500D03*
%TD*%
D13*
%TO.C,R79*%
X203245000Y-114600000D03*
X205070000Y-114600000D03*
%TD*%
D14*
%TO.C,H8*%
X161800000Y-89190000D03*
%TD*%
%TO.C,H7*%
X155160000Y-88250000D03*
%TD*%
%TO.C,H6*%
X90120000Y-90120000D03*
%TD*%
D12*
%TO.C,U6*%
X78974601Y-86911833D03*
D11*
X74624601Y-82261833D03*
X78424601Y-82261833D03*
D10*
X75254601Y-85011833D03*
X77794601Y-85011833D03*
X77794601Y-79511833D03*
X75254601Y-79511833D03*
%TD*%
D16*
%TO.C,J4*%
X134568000Y-133835912D03*
D17*
X134568000Y-131835912D03*
%TD*%
D18*
%TO.C,J12*%
X142618000Y-99201912D03*
D14*
X137618000Y-99201912D03*
%TD*%
%TO.C,H3*%
X149868000Y-99451912D03*
%TD*%
D12*
%TO.C,U3*%
X50979268Y-123857500D03*
D11*
X46629268Y-119207500D03*
X50429268Y-119207500D03*
D10*
X47259268Y-121957500D03*
X49799268Y-121957500D03*
X49799268Y-116457500D03*
X47259268Y-116457500D03*
%TD*%
D19*
%TO.C,SW12*%
X111950000Y-137140000D03*
X111950000Y-132440000D03*
X111950000Y-127740000D03*
%TD*%
D12*
%TO.C,U27*%
X178189268Y-86932500D03*
D11*
X173839268Y-82282500D03*
X177639268Y-82282500D03*
D10*
X174469268Y-85032500D03*
X177009268Y-85032500D03*
X177009268Y-79532500D03*
X174469268Y-79532500D03*
%TD*%
D20*
%TO.C,mouse-bite-2.54mm-slot*%
X123560000Y-95670000D03*
X123560000Y-93470000D03*
X122760000Y-95670000D03*
X122760000Y-93470000D03*
X121960000Y-95670000D03*
X121960000Y-93470000D03*
%TD*%
D12*
%TO.C,U7*%
X90374601Y-83911833D03*
D11*
X86024601Y-79261833D03*
X89824601Y-79261833D03*
D10*
X86654601Y-82011833D03*
X89194601Y-82011833D03*
X89194601Y-76511833D03*
X86654601Y-76511833D03*
%TD*%
D19*
%TO.C,SW13*%
X111950000Y-123790000D03*
X111950000Y-119090000D03*
X111950000Y-114390000D03*
%TD*%
D20*
%TO.C,mouse-bite-2.54mm-slot*%
X117940000Y-108910000D03*
X115740000Y-108910000D03*
X117940000Y-109710000D03*
X115740000Y-109710000D03*
X117940000Y-110510000D03*
X115740000Y-110510000D03*
%TD*%
D14*
%TO.C,H12*%
X87950000Y-164240000D03*
%TD*%
D12*
%TO.C,U16*%
X189589268Y-89932500D03*
D11*
X185239268Y-85282500D03*
X189039268Y-85282500D03*
D10*
X185869268Y-88032500D03*
X188409268Y-88032500D03*
X188409268Y-82532500D03*
X185869268Y-82532500D03*
%TD*%
D21*
%TO.C,J19*%
X99500000Y-134490000D03*
D17*
X99500000Y-136490000D03*
%TD*%
D22*
%TO.C,C11*%
X127685620Y-112701912D03*
D23*
X130185620Y-112701912D03*
%TD*%
D12*
%TO.C,U22*%
X166789268Y-83932500D03*
D11*
X162439268Y-79282500D03*
X166239268Y-79282500D03*
D10*
X163069268Y-82032500D03*
X165609268Y-82032500D03*
X165609268Y-76532500D03*
X163069268Y-76532500D03*
%TD*%
D20*
%TO.C,mouse-bite-2.54mm-slot*%
X117910000Y-152790000D03*
X115710000Y-152790000D03*
X117910000Y-153590000D03*
X115710000Y-153590000D03*
X117910000Y-154390000D03*
X115710000Y-154390000D03*
%TD*%
D14*
%TO.C,H1*%
X128518000Y-154711912D03*
%TD*%
%TO.C,H9*%
X112200000Y-164240000D03*
%TD*%
D24*
%TO.C,J5*%
X121368000Y-105951912D03*
D14*
X126368000Y-105951912D03*
%TD*%
D12*
%TO.C,U20*%
X143989268Y-77932500D03*
D11*
X139639268Y-73282500D03*
X143439268Y-73282500D03*
D10*
X140269268Y-76032500D03*
X142809268Y-76032500D03*
X142809268Y-70532500D03*
X140269268Y-70532500D03*
%TD*%
D25*
%TO.C,J16*%
X137368000Y-117241912D03*
D26*
X137368000Y-114701912D03*
X137368000Y-112161912D03*
X137368000Y-109621912D03*
X137368000Y-107081912D03*
X137368000Y-104541912D03*
%TD*%
D27*
%TO.C,J11*%
X154598000Y-156361912D03*
D28*
X154598000Y-154361912D03*
%TD*%
D19*
%TO.C,SW6*%
X121860000Y-121130000D03*
X121860000Y-116430000D03*
X121860000Y-111730000D03*
%TD*%
D29*
%TO.C,J15*%
X92875000Y-104965000D03*
D14*
X92875000Y-109965000D03*
%TD*%
%TO.C,H10*%
X112200000Y-97990000D03*
%TD*%
D30*
%TO.C,C34*%
X105700000Y-120740000D03*
D23*
X103200000Y-120740000D03*
%TD*%
D27*
%TO.C,SW1*%
X100450000Y-125990000D03*
D28*
X100450000Y-127990000D03*
X100450000Y-129990000D03*
%TD*%
D31*
%TO.C,J1*%
X87560000Y-155804900D03*
X93340000Y-155804900D03*
D32*
X86132000Y-155274900D03*
D33*
X86132000Y-159454900D03*
D32*
X94768000Y-155274900D03*
D33*
X94768000Y-159454900D03*
%TD*%
D20*
%TO.C,mouse-bite-2.54mm-slot*%
X132880000Y-95720000D03*
X132880000Y-93520000D03*
X132080000Y-95720000D03*
X132080000Y-93520000D03*
X131280000Y-95720000D03*
X131280000Y-93520000D03*
%TD*%
D12*
%TO.C,U9*%
X113174601Y-77911833D03*
D11*
X108824601Y-73261833D03*
X112624601Y-73261833D03*
D10*
X109454601Y-76011833D03*
X111994601Y-76011833D03*
X111994601Y-70511833D03*
X109454601Y-70511833D03*
%TD*%
D24*
%TO.C,J13*%
X107010000Y-104990000D03*
D14*
X112010000Y-104990000D03*
%TD*%
D19*
%TO.C,SW8*%
X121860000Y-124750000D03*
X121860000Y-129450000D03*
X121860000Y-134150000D03*
%TD*%
D27*
%TO.C,J2*%
X93950000Y-147490000D03*
D28*
X93950000Y-145490000D03*
X93950000Y-143490000D03*
X93950000Y-141490000D03*
%TD*%
D16*
%TO.C,J18*%
X158618000Y-100701912D03*
D17*
X158618000Y-98701912D03*
%TD*%
D12*
%TO.C,U5*%
X67574601Y-89911833D03*
D11*
X63224601Y-85261833D03*
X67024601Y-85261833D03*
D10*
X63854601Y-88011833D03*
X66394601Y-88011833D03*
X66394601Y-82511833D03*
X63854601Y-82511833D03*
%TD*%
D14*
%TO.C,H11*%
X87950000Y-97990000D03*
%TD*%
D12*
%TO.C,U17*%
X202559268Y-103117500D03*
D11*
X198209268Y-98467500D03*
X202009268Y-98467500D03*
D10*
X198839268Y-101217500D03*
X201379268Y-101217500D03*
X201379268Y-95717500D03*
X198839268Y-95717500D03*
%TD*%
D20*
%TO.C,mouse-bite-2.54mm-slot*%
X117940000Y-129510000D03*
X115740000Y-129510000D03*
X117940000Y-130310000D03*
X115740000Y-130310000D03*
X117940000Y-131110000D03*
X115740000Y-131110000D03*
%TD*%
D12*
%TO.C,U4*%
X53989268Y-103117500D03*
D11*
X49639268Y-98467500D03*
X53439268Y-98467500D03*
D10*
X50269268Y-101217500D03*
X52809268Y-101217500D03*
X52809268Y-95717500D03*
X50269268Y-95717500D03*
%TD*%
D12*
%TO.C,U21*%
X155389268Y-80932500D03*
D11*
X151039268Y-76282500D03*
X154839268Y-76282500D03*
D10*
X151669268Y-79032500D03*
X154209268Y-79032500D03*
X154209268Y-73532500D03*
X151669268Y-73532500D03*
%TD*%
D26*
%TO.C,TB2*%
X98330000Y-140977000D03*
X98330000Y-143517000D03*
X98330000Y-146057000D03*
X98330000Y-148597000D03*
X98330000Y-151137000D03*
X98330000Y-153677000D03*
X98330000Y-156217000D03*
X98330000Y-158757000D03*
X113570000Y-140977000D03*
X113570000Y-143517000D03*
X113570000Y-146057000D03*
X113570000Y-148597000D03*
X113570000Y-151137000D03*
X113570000Y-153677000D03*
X113570000Y-156217000D03*
X113570000Y-158757000D03*
%TD*%
%TO.C,TB1*%
X135618000Y-157361912D03*
X135618000Y-154821912D03*
X135618000Y-152281912D03*
X135618000Y-149741912D03*
X135618000Y-147201912D03*
X135618000Y-144661912D03*
X135618000Y-142121912D03*
X135618000Y-139581912D03*
X120378000Y-157361912D03*
X120378000Y-154821912D03*
X120378000Y-152281912D03*
X120378000Y-149741912D03*
X120378000Y-147201912D03*
X120378000Y-144661912D03*
X120378000Y-142121912D03*
X120378000Y-139581912D03*
%TD*%
D16*
%TO.C,J6*%
X104400000Y-136490000D03*
D17*
X104400000Y-134490000D03*
%TD*%
D14*
%TO.C,H2*%
X149218000Y-154711912D03*
%TD*%
D21*
%TO.C,J8*%
X105450000Y-126990000D03*
D17*
X105450000Y-128990000D03*
%TD*%
D34*
%TO.C,BlackPill1*%
X158618000Y-107071912D03*
X158618000Y-109611912D03*
X158618000Y-112151912D03*
X158618000Y-114691912D03*
X158618000Y-117231912D03*
X158618000Y-119771912D03*
X158618000Y-122311912D03*
X158618000Y-124851912D03*
X158618000Y-127391912D03*
X158618000Y-129931912D03*
X158618000Y-132471912D03*
X158618000Y-135011912D03*
X158618000Y-137551912D03*
X158618000Y-140091912D03*
X158618000Y-142631912D03*
X158618000Y-145171912D03*
X158618000Y-147711912D03*
X158618000Y-150251912D03*
X158618000Y-152791912D03*
X158618000Y-155331912D03*
X143378000Y-107071912D03*
X143378000Y-109611912D03*
X143378000Y-112151912D03*
X143378000Y-114691912D03*
X143378000Y-117231912D03*
X143378000Y-119771912D03*
X143378000Y-122311912D03*
X143378000Y-124851912D03*
X143378000Y-127391912D03*
X143378000Y-129931912D03*
X143378000Y-132471912D03*
X143378000Y-135011912D03*
X143378000Y-137551912D03*
X143378000Y-140091912D03*
X143378000Y-142631912D03*
X143378000Y-145171912D03*
X143378000Y-147711912D03*
X143378000Y-150251912D03*
X143378000Y-152791912D03*
X143378000Y-155331912D03*
%TD*%
D14*
%TO.C,H4*%
X122368000Y-99451912D03*
%TD*%
D12*
%TO.C,U8*%
X101774601Y-80911833D03*
D11*
X97424601Y-76261833D03*
X101224601Y-76261833D03*
D10*
X98054601Y-79011833D03*
X100594601Y-79011833D03*
X100594601Y-73511833D03*
X98054601Y-73511833D03*
%TD*%
D25*
%TO.C,J17*%
X87450000Y-151110000D03*
D26*
X87450000Y-148570000D03*
X87450000Y-146030000D03*
X87450000Y-143490000D03*
X87450000Y-140950000D03*
X87450000Y-138410000D03*
%TD*%
D16*
%TO.C,J3*%
X127818000Y-133701912D03*
D17*
X127818000Y-131701912D03*
%TD*%
D13*
%TO.C,R91*%
X153341768Y-71662500D03*
X151516768Y-71662500D03*
%TD*%
%TO.C,R76*%
X200611768Y-94017500D03*
X198786768Y-94017500D03*
%TD*%
D35*
%TO.C,R14*%
X104700000Y-109327500D03*
X104700000Y-111152500D03*
%TD*%
D36*
%TO.C,C1*%
X128368000Y-120064412D03*
X128368000Y-118339412D03*
%TD*%
D37*
%TO.C,F1*%
X146593000Y-128951912D03*
X148643000Y-128951912D03*
%TD*%
D13*
%TO.C,R23*%
X109362500Y-159240000D03*
X107537500Y-159240000D03*
%TD*%
%TO.C,R77*%
X200771768Y-103147500D03*
X198946768Y-103147500D03*
%TD*%
D35*
%TO.C,R7*%
X138368000Y-139164412D03*
X138368000Y-140989412D03*
%TD*%
D38*
%TO.C,C13*%
X152400500Y-112141912D03*
X150675500Y-112141912D03*
%TD*%
D13*
%TO.C,R86*%
X187851768Y-89837500D03*
X186026768Y-89837500D03*
%TD*%
%TO.C,R52*%
X52136435Y-93978167D03*
X50311435Y-93978167D03*
%TD*%
D15*
%TO.C,R25*%
X87950000Y-131652500D03*
X87950000Y-129827500D03*
%TD*%
D39*
%TO.C,L2*%
X102500000Y-112465000D03*
X98800000Y-112465000D03*
%TD*%
D40*
%TO.C,C19*%
X87702500Y-120445000D03*
X89427500Y-120445000D03*
%TD*%
D35*
%TO.C,R29*%
X97695000Y-102832500D03*
X97695000Y-104657500D03*
%TD*%
D41*
%TO.C,R6*%
X130455500Y-117451912D03*
X132280500Y-117451912D03*
%TD*%
D38*
%TO.C,C2*%
X127980500Y-126451912D03*
X126255500Y-126451912D03*
%TD*%
D42*
%TO.C,F5*%
X97700000Y-130765000D03*
X97700000Y-128715000D03*
%TD*%
D13*
%TO.C,R59*%
X77061768Y-86892500D03*
X75236768Y-86892500D03*
%TD*%
D35*
%TO.C,R16*%
X89200000Y-157077500D03*
X89200000Y-158902500D03*
%TD*%
D13*
%TO.C,R2*%
X128030500Y-127951912D03*
X126205500Y-127951912D03*
%TD*%
D40*
%TO.C,C14*%
X127005500Y-122451912D03*
X128730500Y-122451912D03*
%TD*%
D13*
%TO.C,R30*%
X93362500Y-116490000D03*
X91537500Y-116490000D03*
%TD*%
%TO.C,R56*%
X65651768Y-89882500D03*
X63826768Y-89882500D03*
%TD*%
%TO.C,R18*%
X101317500Y-131725000D03*
X99492500Y-131725000D03*
%TD*%
%TO.C,R50*%
X49031768Y-123667500D03*
X47206768Y-123667500D03*
%TD*%
D40*
%TO.C,C12*%
X145785500Y-112061912D03*
X147510500Y-112061912D03*
%TD*%
D41*
%TO.C,R24*%
X91787500Y-133240000D03*
X93612500Y-133240000D03*
%TD*%
D40*
%TO.C,C37*%
X96975000Y-116240000D03*
X98700000Y-116240000D03*
%TD*%
%TO.C,C21*%
X88337500Y-133240000D03*
X90062500Y-133240000D03*
%TD*%
D43*
%TO.C,U2*%
X132318000Y-122339412D03*
X131368000Y-122339412D03*
X130418000Y-122339412D03*
X130418000Y-120064412D03*
X131368000Y-120064412D03*
X132318000Y-120064412D03*
%TD*%
D13*
%TO.C,R82*%
X176261768Y-77747500D03*
X174436768Y-77747500D03*
%TD*%
D44*
%TO.C,U23*%
X130914268Y-77102500D03*
X130914268Y-78372500D03*
X130914268Y-79642500D03*
X130914268Y-80912500D03*
X130914268Y-82182500D03*
X130914268Y-83452500D03*
X130914268Y-84722500D03*
X130914268Y-85992500D03*
X130914268Y-87262500D03*
X130914268Y-88532500D03*
X130914268Y-89802500D03*
X130914268Y-91072500D03*
X121614268Y-91072500D03*
X121614268Y-89802500D03*
X121614268Y-88532500D03*
X121614268Y-87262500D03*
X121614268Y-85992500D03*
X121614268Y-84722500D03*
X121614268Y-83452500D03*
X121614268Y-82182500D03*
X121614268Y-80912500D03*
X121614268Y-79642500D03*
X121614268Y-78372500D03*
X121614268Y-77102500D03*
%TD*%
D13*
%TO.C,R58*%
X77051768Y-77612500D03*
X75226768Y-77612500D03*
%TD*%
D45*
%TO.C,D27*%
X113200000Y-110490000D03*
X108200000Y-110490000D03*
%TD*%
D38*
%TO.C,C6*%
X156530500Y-111231912D03*
X154805500Y-111231912D03*
%TD*%
D36*
%TO.C,C5*%
X93265000Y-124617500D03*
X93265000Y-122892500D03*
%TD*%
D13*
%TO.C,R95*%
X164791768Y-83862500D03*
X162966768Y-83862500D03*
%TD*%
D46*
%TO.C,L1*%
X131155500Y-126201912D03*
X134855500Y-126201912D03*
%TD*%
D40*
%TO.C,C29*%
X122260500Y-139136912D03*
X123985500Y-139136912D03*
%TD*%
%TO.C,C17*%
X136895500Y-124981912D03*
X138620500Y-124981912D03*
%TD*%
%TO.C,C3*%
X122255500Y-140701912D03*
X123980500Y-140701912D03*
%TD*%
D13*
%TO.C,R85*%
X187641768Y-80757500D03*
X185816768Y-80757500D03*
%TD*%
D47*
%TO.C,C22*%
X119489268Y-77330000D03*
X119489268Y-79055000D03*
%TD*%
D13*
%TO.C,R62*%
X88441768Y-83942500D03*
X86616768Y-83942500D03*
%TD*%
D47*
%TO.C,C32*%
X96955000Y-106652500D03*
X96955000Y-108377500D03*
%TD*%
D35*
%TO.C,R17*%
X92200000Y-157077500D03*
X92200000Y-158902500D03*
%TD*%
D48*
%TO.C,U13*%
X105250000Y-147640000D03*
X102950000Y-147640000D03*
D49*
X102950000Y-141340000D03*
D48*
X100650000Y-147640000D03*
%TD*%
D50*
%TO.C,U1*%
X146218000Y-119001912D03*
X146218000Y-116701912D03*
D51*
X152518000Y-116701912D03*
D50*
X146218000Y-114401912D03*
%TD*%
D40*
%TO.C,C8*%
X147755500Y-125201912D03*
X149480500Y-125201912D03*
%TD*%
D38*
%TO.C,C23*%
X89312500Y-112490000D03*
X87587500Y-112490000D03*
%TD*%
D13*
%TO.C,R88*%
X142001768Y-68702500D03*
X140176768Y-68702500D03*
%TD*%
D47*
%TO.C,C30*%
X89450000Y-129877500D03*
X89450000Y-131602500D03*
%TD*%
D15*
%TO.C,R1*%
X126868000Y-120114412D03*
X126868000Y-118289412D03*
%TD*%
D36*
%TO.C,C35*%
X102925000Y-108350000D03*
X102925000Y-106625000D03*
%TD*%
D13*
%TO.C,R89*%
X142111768Y-77862500D03*
X140286768Y-77862500D03*
%TD*%
%TO.C,R65*%
X99821768Y-80892500D03*
X97996768Y-80892500D03*
%TD*%
%TO.C,R92*%
X153634268Y-80922500D03*
X151809268Y-80922500D03*
%TD*%
D15*
%TO.C,R3*%
X138368000Y-157776912D03*
X138368000Y-155951912D03*
%TD*%
D13*
%TO.C,R55*%
X65631768Y-80592500D03*
X63806768Y-80592500D03*
%TD*%
%TO.C,R68*%
X111441768Y-77862500D03*
X109616768Y-77862500D03*
%TD*%
%TO.C,R11*%
X151070500Y-123721912D03*
X149245500Y-123721912D03*
%TD*%
%TO.C,R22*%
X93787500Y-128740000D03*
X91962500Y-128740000D03*
%TD*%
D47*
%TO.C,C18*%
X95505000Y-120522500D03*
X95505000Y-122247500D03*
%TD*%
D15*
%TO.C,R27*%
X102650000Y-104627500D03*
X102650000Y-102802500D03*
%TD*%
D52*
%TO.C,U14*%
X100650000Y-152090000D03*
X102950000Y-152090000D03*
D53*
X102950000Y-158390000D03*
D52*
X105250000Y-152090000D03*
%TD*%
D13*
%TO.C,R5*%
X121033000Y-136951912D03*
X119208000Y-136951912D03*
%TD*%
D54*
%TO.C,D5*%
X131868000Y-103201912D03*
X131868000Y-98201912D03*
%TD*%
D36*
%TO.C,C36*%
X96950000Y-114602500D03*
X96950000Y-112877500D03*
%TD*%
D13*
%TO.C,R67*%
X111241768Y-68652500D03*
X109416768Y-68652500D03*
%TD*%
D35*
%TO.C,R12*%
X133868000Y-116539412D03*
X133868000Y-118364412D03*
%TD*%
D13*
%TO.C,R94*%
X164789268Y-74772500D03*
X162964268Y-74772500D03*
%TD*%
D38*
%TO.C,C4*%
X91507500Y-124585000D03*
X89782500Y-124585000D03*
%TD*%
D40*
%TO.C,C16*%
X136755500Y-127701912D03*
X138480500Y-127701912D03*
%TD*%
D13*
%TO.C,R64*%
X99761768Y-71622500D03*
X97936768Y-71622500D03*
%TD*%
D35*
%TO.C,R26*%
X100950000Y-102827500D03*
X100950000Y-104652500D03*
%TD*%
D13*
%TO.C,R49*%
X49006435Y-114648167D03*
X47181435Y-114648167D03*
%TD*%
%TO.C,R61*%
X88384268Y-74632500D03*
X86559268Y-74632500D03*
%TD*%
D35*
%TO.C,R9*%
X133868000Y-119951912D03*
X133868000Y-121776912D03*
%TD*%
D55*
%TO.C,JP3*%
X97200000Y-135340000D03*
D56*
X97200000Y-136640000D03*
%TD*%
D13*
%TO.C,R53*%
X52151768Y-103232500D03*
X50326768Y-103232500D03*
%TD*%
%TO.C,R71*%
X122541768Y-74852500D03*
X120716768Y-74852500D03*
%TD*%
D41*
%TO.C,R10*%
X145868000Y-123701912D03*
X147693000Y-123701912D03*
%TD*%
D13*
%TO.C,R83*%
X176411768Y-86847500D03*
X174586768Y-86847500D03*
%TD*%
D38*
%TO.C,C7*%
X156540500Y-112881912D03*
X154815500Y-112881912D03*
%TD*%
D43*
%TO.C,U15*%
X101350000Y-108740000D03*
X100400000Y-108740000D03*
X99450000Y-108740000D03*
X99450000Y-106465000D03*
X100400000Y-106465000D03*
X101350000Y-106465000D03*
%TD*%
M02*
