%TF.GenerationSoftware,KiCad,Pcbnew,10.0.0*%
%TF.CreationDate,2026-09-21T22:47:24+05:30*%
%TF.ProjectId,LineFollowerGOAT,4c696e65-466f-46c6-9c6f-776572474f41,rev?*%
%TF.SameCoordinates,Original*%
%TF.FileFunction,Paste,Bot*%
%TF.FilePolarity,Positive*%
%FSLAX46Y46*%
G04 Gerber Fmt 4.6, Leading zero omitted, Abs format (unit mm)*
G04 Created by KiCad (PCBNEW 10.0.0) date 2026-09-21 22:47:24*
%MOMM*%
%LPD*%
G01*
G04 APERTURE LIST*
G04 Aperture macros list*
%AMRoundRect*
0 Rectangle with rounded corners*
0 $1 Rounding radius*
0 $2 $3 $4 $5 $6 $7 $8 $9 X,Y pos of 4 corners*
0 Add a 4 corners polygon primitive as box body*
4,1,4,$2,$3,$4,$5,$6,$7,$8,$9,$2,$3,0*
0 Add four circle primitives for the rounded corners*
1,1,$1+$1,$2,$3*
1,1,$1+$1,$4,$5*
1,1,$1+$1,$6,$7*
1,1,$1+$1,$8,$9*
0 Add four rect primitives between the rounded corners*
20,1,$1+$1,$2,$3,$4,$5,0*
20,1,$1+$1,$4,$5,$6,$7,0*
20,1,$1+$1,$6,$7,$8,$9,0*
20,1,$1+$1,$8,$9,$2,$3,0*%
G04 Aperture macros list end*
%ADD10RoundRect,0.237500X0.250000X0.237500X-0.250000X0.237500X-0.250000X-0.237500X0.250000X-0.237500X0*%
%ADD11RoundRect,0.237500X0.237500X-0.250000X0.237500X0.250000X-0.237500X0.250000X-0.237500X-0.250000X0*%
%ADD12RoundRect,0.237500X-0.237500X0.250000X-0.237500X-0.250000X0.237500X-0.250000X0.237500X0.250000X0*%
%ADD13RoundRect,0.237500X0.237500X-0.300000X0.237500X0.300000X-0.237500X0.300000X-0.237500X-0.300000X0*%
%ADD14RoundRect,0.250000X-0.325000X-0.450000X0.325000X-0.450000X0.325000X0.450000X-0.325000X0.450000X0*%
%ADD15RoundRect,0.237500X0.300000X0.237500X-0.300000X0.237500X-0.300000X-0.237500X0.300000X-0.237500X0*%
%ADD16RoundRect,0.249999X0.450001X1.850001X-0.450001X1.850001X-0.450001X-1.850001X0.450001X-1.850001X0*%
%ADD17RoundRect,0.237500X-0.300000X-0.237500X0.300000X-0.237500X0.300000X0.237500X-0.300000X0.237500X0*%
%ADD18RoundRect,0.237500X-0.250000X-0.237500X0.250000X-0.237500X0.250000X0.237500X-0.250000X0.237500X0*%
%ADD19RoundRect,0.250000X0.450000X-0.325000X0.450000X0.325000X-0.450000X0.325000X-0.450000X-0.325000X0*%
%ADD20RoundRect,0.150000X0.150000X-0.512500X0.150000X0.512500X-0.150000X0.512500X-0.150000X-0.512500X0*%
%ADD21RoundRect,0.150000X0.875000X0.150000X-0.875000X0.150000X-0.875000X-0.150000X0.875000X-0.150000X0*%
%ADD22RoundRect,0.250000X1.500000X0.650000X-1.500000X0.650000X-1.500000X-0.650000X1.500000X-0.650000X0*%
%ADD23RoundRect,0.249999X-0.450001X-1.850001X0.450001X-1.850001X0.450001X1.850001X-0.450001X1.850001X0*%
%ADD24RoundRect,0.237500X-0.237500X0.300000X-0.237500X-0.300000X0.237500X-0.300000X0.237500X0.300000X0*%
%ADD25RoundRect,0.375000X0.375000X-0.625000X0.375000X0.625000X-0.375000X0.625000X-0.375000X-0.625000X0*%
%ADD26RoundRect,0.500000X1.400000X-0.500000X1.400000X0.500000X-1.400000X0.500000X-1.400000X-0.500000X0*%
%ADD27RoundRect,0.375000X-0.625000X-0.375000X0.625000X-0.375000X0.625000X0.375000X-0.625000X0.375000X0*%
%ADD28RoundRect,0.500000X-0.500000X-1.400000X0.500000X-1.400000X0.500000X1.400000X-0.500000X1.400000X0*%
%ADD29RoundRect,0.375000X-0.375000X0.625000X-0.375000X-0.625000X0.375000X-0.625000X0.375000X0.625000X0*%
%ADD30RoundRect,0.500000X-1.400000X0.500000X-1.400000X-0.500000X1.400000X-0.500000X1.400000X0.500000X0*%
%ADD31RoundRect,0.250000X0.650000X-1.500000X0.650000X1.500000X-0.650000X1.500000X-0.650000X-1.500000X0*%
G04 APERTURE END LIST*
D10*
%TO.C,R73*%
X128956768Y-65712500D03*
X130781768Y-65712500D03*
%TD*%
%TO.C,R74*%
X128866768Y-74872500D03*
X130691768Y-74872500D03*
%TD*%
%TO.C,R70*%
X120846768Y-65652500D03*
X122671768Y-65652500D03*
%TD*%
%TO.C,R80*%
X203187500Y-123840000D03*
X205012500Y-123840000D03*
%TD*%
D11*
%TO.C,R81*%
X200420000Y-121997500D03*
X200420000Y-123822500D03*
%TD*%
D10*
%TO.C,R79*%
X203245000Y-114600000D03*
X205070000Y-114600000D03*
%TD*%
%TO.C,R91*%
X153341768Y-71662500D03*
X151516768Y-71662500D03*
%TD*%
%TO.C,R76*%
X200611768Y-94017500D03*
X198786768Y-94017500D03*
%TD*%
D12*
%TO.C,R14*%
X104700000Y-109327500D03*
X104700000Y-111152500D03*
%TD*%
D13*
%TO.C,C1*%
X128368000Y-120064412D03*
X128368000Y-118339412D03*
%TD*%
D14*
%TO.C,F1*%
X146593000Y-128951912D03*
X148643000Y-128951912D03*
%TD*%
D10*
%TO.C,R23*%
X109362500Y-159240000D03*
X107537500Y-159240000D03*
%TD*%
%TO.C,R77*%
X200771768Y-103147500D03*
X198946768Y-103147500D03*
%TD*%
D12*
%TO.C,R7*%
X138368000Y-139164412D03*
X138368000Y-140989412D03*
%TD*%
D15*
%TO.C,C13*%
X152400500Y-112141912D03*
X150675500Y-112141912D03*
%TD*%
D10*
%TO.C,R86*%
X187851768Y-89837500D03*
X186026768Y-89837500D03*
%TD*%
%TO.C,R52*%
X52136435Y-93978167D03*
X50311435Y-93978167D03*
%TD*%
D11*
%TO.C,R25*%
X87950000Y-131652500D03*
X87950000Y-129827500D03*
%TD*%
D16*
%TO.C,L2*%
X102500000Y-112465000D03*
X98800000Y-112465000D03*
%TD*%
D17*
%TO.C,C19*%
X87702500Y-120445000D03*
X89427500Y-120445000D03*
%TD*%
D12*
%TO.C,R29*%
X97695000Y-102832500D03*
X97695000Y-104657500D03*
%TD*%
D18*
%TO.C,R6*%
X130455500Y-117451912D03*
X132280500Y-117451912D03*
%TD*%
D15*
%TO.C,C2*%
X127980500Y-126451912D03*
X126255500Y-126451912D03*
%TD*%
D19*
%TO.C,F5*%
X97700000Y-130765000D03*
X97700000Y-128715000D03*
%TD*%
D10*
%TO.C,R59*%
X77061768Y-86892500D03*
X75236768Y-86892500D03*
%TD*%
D12*
%TO.C,R16*%
X89200000Y-157077500D03*
X89200000Y-158902500D03*
%TD*%
D10*
%TO.C,R2*%
X128030500Y-127951912D03*
X126205500Y-127951912D03*
%TD*%
D17*
%TO.C,C14*%
X127005500Y-122451912D03*
X128730500Y-122451912D03*
%TD*%
D10*
%TO.C,R30*%
X93362500Y-116490000D03*
X91537500Y-116490000D03*
%TD*%
%TO.C,R56*%
X65651768Y-89882500D03*
X63826768Y-89882500D03*
%TD*%
%TO.C,R18*%
X101317500Y-131725000D03*
X99492500Y-131725000D03*
%TD*%
%TO.C,R50*%
X49031768Y-123667500D03*
X47206768Y-123667500D03*
%TD*%
D17*
%TO.C,C12*%
X145785500Y-112061912D03*
X147510500Y-112061912D03*
%TD*%
D18*
%TO.C,R24*%
X91787500Y-133240000D03*
X93612500Y-133240000D03*
%TD*%
D17*
%TO.C,C37*%
X96975000Y-116240000D03*
X98700000Y-116240000D03*
%TD*%
%TO.C,C21*%
X88337500Y-133240000D03*
X90062500Y-133240000D03*
%TD*%
D20*
%TO.C,U2*%
X132318000Y-122339412D03*
X131368000Y-122339412D03*
X130418000Y-122339412D03*
X130418000Y-120064412D03*
X131368000Y-120064412D03*
X132318000Y-120064412D03*
%TD*%
D10*
%TO.C,R82*%
X176261768Y-77747500D03*
X174436768Y-77747500D03*
%TD*%
D21*
%TO.C,U23*%
X130914268Y-77102500D03*
X130914268Y-78372500D03*
X130914268Y-79642500D03*
X130914268Y-80912500D03*
X130914268Y-82182500D03*
X130914268Y-83452500D03*
X130914268Y-84722500D03*
X130914268Y-85992500D03*
X130914268Y-87262500D03*
X130914268Y-88532500D03*
X130914268Y-89802500D03*
X130914268Y-91072500D03*
X121614268Y-91072500D03*
X121614268Y-89802500D03*
X121614268Y-88532500D03*
X121614268Y-87262500D03*
X121614268Y-85992500D03*
X121614268Y-84722500D03*
X121614268Y-83452500D03*
X121614268Y-82182500D03*
X121614268Y-80912500D03*
X121614268Y-79642500D03*
X121614268Y-78372500D03*
X121614268Y-77102500D03*
%TD*%
D10*
%TO.C,R58*%
X77051768Y-77612500D03*
X75226768Y-77612500D03*
%TD*%
D22*
%TO.C,D27*%
X113200000Y-110490000D03*
X108200000Y-110490000D03*
%TD*%
D15*
%TO.C,C6*%
X156530500Y-111231912D03*
X154805500Y-111231912D03*
%TD*%
D13*
%TO.C,C5*%
X93265000Y-124617500D03*
X93265000Y-122892500D03*
%TD*%
D10*
%TO.C,R95*%
X164791768Y-83862500D03*
X162966768Y-83862500D03*
%TD*%
D23*
%TO.C,L1*%
X131155500Y-126201912D03*
X134855500Y-126201912D03*
%TD*%
D17*
%TO.C,C29*%
X122260500Y-139136912D03*
X123985500Y-139136912D03*
%TD*%
%TO.C,C17*%
X136895500Y-124981912D03*
X138620500Y-124981912D03*
%TD*%
%TO.C,C3*%
X122255500Y-140701912D03*
X123980500Y-140701912D03*
%TD*%
D10*
%TO.C,R85*%
X187641768Y-80757500D03*
X185816768Y-80757500D03*
%TD*%
D24*
%TO.C,C22*%
X119489268Y-77330000D03*
X119489268Y-79055000D03*
%TD*%
D10*
%TO.C,R62*%
X88441768Y-83942500D03*
X86616768Y-83942500D03*
%TD*%
D24*
%TO.C,C32*%
X96955000Y-106652500D03*
X96955000Y-108377500D03*
%TD*%
D12*
%TO.C,R17*%
X92200000Y-157077500D03*
X92200000Y-158902500D03*
%TD*%
D25*
%TO.C,U13*%
X105250000Y-147640000D03*
X102950000Y-147640000D03*
D26*
X102950000Y-141340000D03*
D25*
X100650000Y-147640000D03*
%TD*%
D27*
%TO.C,U1*%
X146218000Y-119001912D03*
X146218000Y-116701912D03*
D28*
X152518000Y-116701912D03*
D27*
X146218000Y-114401912D03*
%TD*%
D17*
%TO.C,C8*%
X147755500Y-125201912D03*
X149480500Y-125201912D03*
%TD*%
D15*
%TO.C,C23*%
X89312500Y-112490000D03*
X87587500Y-112490000D03*
%TD*%
D10*
%TO.C,R88*%
X142001768Y-68702500D03*
X140176768Y-68702500D03*
%TD*%
D24*
%TO.C,C30*%
X89450000Y-129877500D03*
X89450000Y-131602500D03*
%TD*%
D11*
%TO.C,R1*%
X126868000Y-120114412D03*
X126868000Y-118289412D03*
%TD*%
D13*
%TO.C,C35*%
X102925000Y-108350000D03*
X102925000Y-106625000D03*
%TD*%
D10*
%TO.C,R89*%
X142111768Y-77862500D03*
X140286768Y-77862500D03*
%TD*%
%TO.C,R65*%
X99821768Y-80892500D03*
X97996768Y-80892500D03*
%TD*%
%TO.C,R92*%
X153634268Y-80922500D03*
X151809268Y-80922500D03*
%TD*%
D11*
%TO.C,R3*%
X138368000Y-157776912D03*
X138368000Y-155951912D03*
%TD*%
D10*
%TO.C,R55*%
X65631768Y-80592500D03*
X63806768Y-80592500D03*
%TD*%
%TO.C,R68*%
X111441768Y-77862500D03*
X109616768Y-77862500D03*
%TD*%
%TO.C,R11*%
X151070500Y-123721912D03*
X149245500Y-123721912D03*
%TD*%
%TO.C,R22*%
X93787500Y-128740000D03*
X91962500Y-128740000D03*
%TD*%
D24*
%TO.C,C18*%
X95505000Y-120522500D03*
X95505000Y-122247500D03*
%TD*%
D11*
%TO.C,R27*%
X102650000Y-104627500D03*
X102650000Y-102802500D03*
%TD*%
D29*
%TO.C,U14*%
X100650000Y-152090000D03*
X102950000Y-152090000D03*
D30*
X102950000Y-158390000D03*
D29*
X105250000Y-152090000D03*
%TD*%
D10*
%TO.C,R5*%
X121033000Y-136951912D03*
X119208000Y-136951912D03*
%TD*%
D31*
%TO.C,D5*%
X131868000Y-103201912D03*
X131868000Y-98201912D03*
%TD*%
D13*
%TO.C,C36*%
X96950000Y-114602500D03*
X96950000Y-112877500D03*
%TD*%
D10*
%TO.C,R67*%
X111241768Y-68652500D03*
X109416768Y-68652500D03*
%TD*%
D12*
%TO.C,R12*%
X133868000Y-116539412D03*
X133868000Y-118364412D03*
%TD*%
D10*
%TO.C,R94*%
X164789268Y-74772500D03*
X162964268Y-74772500D03*
%TD*%
D15*
%TO.C,C4*%
X91507500Y-124585000D03*
X89782500Y-124585000D03*
%TD*%
D17*
%TO.C,C16*%
X136755500Y-127701912D03*
X138480500Y-127701912D03*
%TD*%
D10*
%TO.C,R64*%
X99761768Y-71622500D03*
X97936768Y-71622500D03*
%TD*%
D12*
%TO.C,R26*%
X100950000Y-102827500D03*
X100950000Y-104652500D03*
%TD*%
D10*
%TO.C,R49*%
X49006435Y-114648167D03*
X47181435Y-114648167D03*
%TD*%
%TO.C,R61*%
X88384268Y-74632500D03*
X86559268Y-74632500D03*
%TD*%
D12*
%TO.C,R9*%
X133868000Y-119951912D03*
X133868000Y-121776912D03*
%TD*%
D10*
%TO.C,R53*%
X52151768Y-103232500D03*
X50326768Y-103232500D03*
%TD*%
%TO.C,R71*%
X122541768Y-74852500D03*
X120716768Y-74852500D03*
%TD*%
D18*
%TO.C,R10*%
X145868000Y-123701912D03*
X147693000Y-123701912D03*
%TD*%
D10*
%TO.C,R83*%
X176411768Y-86847500D03*
X174586768Y-86847500D03*
%TD*%
D15*
%TO.C,C7*%
X156540500Y-112881912D03*
X154815500Y-112881912D03*
%TD*%
D20*
%TO.C,U15*%
X101350000Y-108740000D03*
X100400000Y-108740000D03*
X99450000Y-108740000D03*
X99450000Y-106465000D03*
X100400000Y-106465000D03*
X101350000Y-106465000D03*
%TD*%
M02*
