%TF.GenerationSoftware,KiCad,Pcbnew,10.0.0*%
%TF.CreationDate,2026-09-21T22:47:25+05:30*%
%TF.ProjectId,LineFollowerGOAT,4c696e65-466f-46c6-9c6f-776572474f41,rev?*%
%TF.SameCoordinates,Original*%
%TF.FileFunction,Soldermask,Top*%
%TF.FilePolarity,Negative*%
%FSLAX46Y46*%
G04 Gerber Fmt 4.6, Leading zero omitted, Abs format (unit mm)*
G04 Created by KiCad (PCBNEW 10.0.0) date 2026-09-21 22:47:25*
%MOMM*%
%LPD*%
G01*
G04 APERTURE LIST*
G04 Aperture macros list*
%AMRoundRect*
0 Rectangle with rounded corners*
0 $1 Rounding radius*
0 $2 $3 $4 $5 $6 $7 $8 $9 X,Y pos of 4 corners*
0 Add a 4 corners polygon primitive as box body*
4,1,4,$2,$3,$4,$5,$6,$7,$8,$9,$2,$3,0*
0 Add four circle primitives for the rounded corners*
1,1,$1+$1,$2,$3*
1,1,$1+$1,$4,$5*
1,1,$1+$1,$6,$7*
1,1,$1+$1,$8,$9*
0 Add four rect primitives between the rounded corners*
20,1,$1+$1,$2,$3,$4,$5,0*
20,1,$1+$1,$4,$5,$6,$7,0*
20,1,$1+$1,$6,$7,$8,$9,0*
20,1,$1+$1,$8,$9,$2,$3,0*%
%AMFreePoly0*
4,1,7,1.050000,-0.975000,-0.250000,-0.975000,-0.250000,-0.625000,-1.050000,-0.625000,-1.050000,0.975000,1.050000,0.975000,1.050000,-0.975000,1.050000,-0.975000,$1*%
%AMFreePoly1*
4,1,7,1.050000,-0.625000,0.250000,-0.625000,0.250000,-0.975000,-1.050000,-0.975000,-1.050000,0.975000,1.050000,0.975000,1.050000,-0.625000,1.050000,-0.625000,$1*%
%AMFreePoly2*
4,1,23,0.500000,-0.750000,0.000000,-0.750000,0.000000,-0.745722,-0.065263,-0.745722,-0.191342,-0.711940,-0.304381,-0.646677,-0.396677,-0.554381,-0.461940,-0.441342,-0.495722,-0.315263,-0.495722,-0.250000,-0.500000,-0.250000,-0.500000,0.250000,-0.495722,0.250000,-0.495722,0.315263,-0.461940,0.441342,-0.396677,0.554381,-0.304381,0.646677,-0.191342,0.711940,-0.065263,0.745722,0.000000,0.745722,
0.000000,0.750000,0.500000,0.750000,0.500000,-0.750000,0.500000,-0.750000,$1*%
%AMFreePoly3*
4,1,23,0.000000,0.745722,0.065263,0.745722,0.191342,0.711940,0.304381,0.646677,0.396677,0.554381,0.461940,0.441342,0.495722,0.315263,0.495722,0.250000,0.500000,0.250000,0.500000,-0.250000,0.495722,-0.250000,0.495722,-0.315263,0.461940,-0.441342,0.396677,-0.554381,0.304381,-0.646677,0.191342,-0.711940,0.065263,-0.745722,0.000000,-0.745722,0.000000,-0.750000,-0.500000,-0.750000,
-0.500000,0.750000,0.000000,0.750000,0.000000,0.745722,0.000000,0.745722,$1*%
G04 Aperture macros list end*
%ADD10RoundRect,0.237500X0.287500X0.237500X-0.287500X0.237500X-0.287500X-0.237500X0.287500X-0.237500X0*%
%ADD11C,1.804000*%
%ADD12C,2.500000*%
%ADD13C,1.000000*%
%ADD14RoundRect,0.237500X-0.237500X0.250000X-0.237500X-0.250000X0.237500X-0.250000X0.237500X0.250000X0*%
%ADD15C,3.000000*%
%ADD16RoundRect,0.250000X0.625000X-0.350000X0.625000X0.350000X-0.625000X0.350000X-0.625000X-0.350000X0*%
%ADD17O,1.750000X1.200000*%
%ADD18RoundRect,0.750000X0.750000X0.750000X-0.750000X0.750000X-0.750000X-0.750000X0.750000X-0.750000X0*%
%ADD19RoundRect,0.237500X-0.287500X-0.237500X0.287500X-0.237500X0.287500X0.237500X-0.287500X0.237500X0*%
%ADD20RoundRect,0.237500X0.237500X-0.287500X0.237500X0.287500X-0.237500X0.287500X-0.237500X-0.287500X0*%
%ADD21O,2.500000X1.500000*%
%ADD22R,2.500000X1.500000*%
%ADD23C,0.500000*%
%ADD24RoundRect,0.237500X0.237500X-0.300000X0.237500X0.300000X-0.237500X0.300000X-0.237500X-0.300000X0*%
%ADD25RoundRect,0.250000X2.000000X0.750000X-2.000000X0.750000X-2.000000X-0.750000X2.000000X-0.750000X0*%
%ADD26RoundRect,0.075000X-0.075000X-0.475000X0.075000X-0.475000X0.075000X0.475000X-0.075000X0.475000X0*%
%ADD27FreePoly0,0.000000*%
%ADD28FreePoly1,0.000000*%
%ADD29RoundRect,0.075000X-0.075000X0.662500X-0.075000X-0.662500X0.075000X-0.662500X0.075000X0.662500X0*%
%ADD30RoundRect,0.075000X-0.662500X0.075000X-0.662500X-0.075000X0.662500X-0.075000X0.662500X0.075000X0*%
%ADD31RoundRect,0.237500X-0.250000X-0.237500X0.250000X-0.237500X0.250000X0.237500X-0.250000X0.237500X0*%
%ADD32FreePoly2,0.000000*%
%ADD33FreePoly3,0.000000*%
%ADD34RoundRect,0.250000X-0.625000X0.350000X-0.625000X-0.350000X0.625000X-0.350000X0.625000X0.350000X0*%
%ADD35RoundRect,0.250000X-0.550000X-0.550000X0.550000X-0.550000X0.550000X0.550000X-0.550000X0.550000X0*%
%ADD36C,1.600000*%
%ADD37RoundRect,0.237500X-0.237500X0.287500X-0.237500X-0.287500X0.237500X-0.287500X0.237500X0.287500X0*%
%ADD38RoundRect,0.237500X0.237500X-0.250000X0.237500X0.250000X-0.237500X0.250000X-0.237500X-0.250000X0*%
%ADD39RoundRect,0.249999X-0.525001X-0.900001X0.525001X-0.900001X0.525001X0.900001X-0.525001X0.900001X0*%
%ADD40RoundRect,0.750000X-0.750000X-0.750000X0.750000X-0.750000X0.750000X0.750000X-0.750000X0.750000X0*%
%ADD41R,1.500000X2.500000*%
%ADD42R,1.700000X1.700000*%
%ADD43C,1.700000*%
%ADD44RoundRect,0.237500X0.300000X0.237500X-0.300000X0.237500X-0.300000X-0.237500X0.300000X-0.237500X0*%
%ADD45R,1.350000X1.350000*%
%ADD46C,1.350000*%
%ADD47RoundRect,0.075000X-0.475000X0.075000X-0.475000X-0.075000X0.475000X-0.075000X0.475000X0.075000X0*%
%ADD48FreePoly0,270.000000*%
%ADD49FreePoly1,270.000000*%
%ADD50RoundRect,0.750000X-0.750000X0.750000X-0.750000X-0.750000X0.750000X-0.750000X0.750000X0.750000X0*%
%ADD51RoundRect,0.075000X0.475000X-0.075000X0.475000X0.075000X-0.475000X0.075000X-0.475000X-0.075000X0*%
%ADD52FreePoly0,90.000000*%
%ADD53FreePoly1,90.000000*%
%ADD54RoundRect,0.237500X-0.300000X-0.237500X0.300000X-0.237500X0.300000X0.237500X-0.300000X0.237500X0*%
%ADD55RoundRect,0.250000X0.550000X0.550000X-0.550000X0.550000X-0.550000X-0.550000X0.550000X-0.550000X0*%
%ADD56C,0.650000*%
%ADD57RoundRect,0.020000X0.150000X0.883800X-0.150000X0.883800X-0.150000X-0.883800X0.150000X-0.883800X0*%
%ADD58RoundRect,0.020000X-0.150000X-0.883800X0.150000X-0.883800X0.150000X0.883800X-0.150000X0.883800X0*%
%ADD59RoundRect,0.010000X0.302000X0.883800X-0.302000X0.883800X-0.302000X-0.883800X0.302000X-0.883800X0*%
%ADD60RoundRect,0.010000X-0.300000X-0.883800X0.300000X-0.883800X0.300000X0.883800X-0.300000X0.883800X0*%
%ADD61O,1.000000X2.100000*%
%ADD62O,1.000000X1.600000*%
%ADD63RoundRect,0.010000X0.300000X0.883800X-0.300000X0.883800X-0.300000X-0.883800X0.300000X-0.883800X0*%
%ADD64RoundRect,0.237500X-0.237500X0.300000X-0.237500X-0.300000X0.237500X-0.300000X0.237500X0.300000X0*%
%ADD65C,1.524000*%
%ADD66RoundRect,0.249999X-0.900001X0.525001X-0.900001X-0.525001X0.900001X-0.525001X0.900001X0.525001X0*%
%ADD67RoundRect,0.100000X0.637500X0.100000X-0.637500X0.100000X-0.637500X-0.100000X0.637500X-0.100000X0*%
G04 APERTURE END LIST*
%TO.C,JP2*%
G36*
X100900000Y-149490000D02*
G01*
X101200000Y-149490000D01*
X101200000Y-150990000D01*
X100900000Y-150990000D01*
X100900000Y-149490000D01*
G37*
%TD*%
D10*
%TO.C,D25*%
X107700000Y-159240000D03*
X109450000Y-159240000D03*
%TD*%
D11*
%TO.C,U10*%
X120854601Y-67511833D03*
X123394601Y-67511833D03*
X123394601Y-73011833D03*
X120854601Y-73011833D03*
D12*
X124024601Y-70261833D03*
X120224601Y-70261833D03*
D13*
X124574601Y-74911833D03*
%TD*%
D14*
%TO.C,R75*%
X134149268Y-74902500D03*
X134149268Y-73077500D03*
%TD*%
D11*
%TO.C,U11*%
X128869268Y-67532500D03*
X131409268Y-67532500D03*
X131409268Y-73032500D03*
X128869268Y-73032500D03*
D12*
X132039268Y-70282500D03*
X128239268Y-70282500D03*
D13*
X132589268Y-74932500D03*
%TD*%
D14*
%TO.C,R72*%
X126089268Y-74865000D03*
X126089268Y-73040000D03*
%TD*%
D15*
%TO.C,H5*%
X83430000Y-90850000D03*
%TD*%
D11*
%TO.C,U18*%
X203290000Y-116460000D03*
X205830000Y-116460000D03*
X205830000Y-121960000D03*
X203290000Y-121960000D03*
D12*
X206460000Y-119210000D03*
X202660000Y-119210000D03*
D13*
X207010000Y-123860000D03*
%TD*%
D15*
%TO.C,H8*%
X161800000Y-89190000D03*
%TD*%
%TO.C,H7*%
X155160000Y-88250000D03*
%TD*%
%TO.C,H6*%
X90120000Y-90120000D03*
%TD*%
D13*
%TO.C,U6*%
X78974601Y-86911833D03*
D12*
X74624601Y-82261833D03*
X78424601Y-82261833D03*
D11*
X75254601Y-85011833D03*
X77794601Y-85011833D03*
X77794601Y-79511833D03*
X75254601Y-79511833D03*
%TD*%
D16*
%TO.C,J4*%
X134568000Y-133835912D03*
D17*
X134568000Y-131835912D03*
%TD*%
D18*
%TO.C,J12*%
X142618000Y-99201912D03*
D15*
X137618000Y-99201912D03*
%TD*%
D19*
%TO.C,FB2*%
X91520000Y-124575000D03*
X93270000Y-124575000D03*
%TD*%
D15*
%TO.C,H3*%
X149868000Y-99451912D03*
%TD*%
D13*
%TO.C,U3*%
X50979268Y-123857500D03*
D12*
X46629268Y-119207500D03*
X50429268Y-119207500D03*
D11*
X47259268Y-121957500D03*
X49799268Y-121957500D03*
X49799268Y-116457500D03*
X47259268Y-116457500D03*
%TD*%
D20*
%TO.C,D26*%
X93450000Y-138615000D03*
X93450000Y-136865000D03*
%TD*%
D21*
%TO.C,SW12*%
X111950000Y-137140000D03*
X111950000Y-132440000D03*
X111950000Y-127740000D03*
%TD*%
D14*
%TO.C,R57*%
X69249268Y-88050000D03*
X69249268Y-89875000D03*
%TD*%
D13*
%TO.C,U27*%
X178189268Y-86932500D03*
D12*
X173839268Y-82282500D03*
X177639268Y-82282500D03*
D11*
X174469268Y-85032500D03*
X177009268Y-85032500D03*
X177009268Y-79532500D03*
X174469268Y-79532500D03*
%TD*%
D22*
%TO.C,SW2*%
X127936000Y-120201912D03*
X136436000Y-120201912D03*
%TD*%
D14*
%TO.C,R96*%
X168439268Y-82170000D03*
X168439268Y-83995000D03*
%TD*%
D23*
%TO.C,mouse-bite-2.54mm-slot*%
X123560000Y-95670000D03*
X123560000Y-93470000D03*
X122760000Y-95670000D03*
X122760000Y-93470000D03*
X121960000Y-95670000D03*
X121960000Y-93470000D03*
%TD*%
D24*
%TO.C,C24*%
X100450000Y-147602500D03*
X100450000Y-145877500D03*
%TD*%
D25*
%TO.C,Y1*%
X96700000Y-120490000D03*
X88200000Y-120490000D03*
%TD*%
D14*
%TO.C,R93*%
X157129268Y-79150000D03*
X157129268Y-80975000D03*
%TD*%
D13*
%TO.C,U7*%
X90374601Y-83911833D03*
D12*
X86024601Y-79261833D03*
X89824601Y-79261833D03*
D11*
X86654601Y-82011833D03*
X89194601Y-82011833D03*
X89194601Y-76511833D03*
X86654601Y-76511833D03*
%TD*%
D21*
%TO.C,SW13*%
X111950000Y-123790000D03*
X111950000Y-119090000D03*
X111950000Y-114390000D03*
%TD*%
D26*
%TO.C,J9*%
X121759268Y-86902500D03*
X122259268Y-86902500D03*
X122759268Y-86902500D03*
X123259268Y-86902500D03*
X123759268Y-86902500D03*
X124259268Y-86902500D03*
X124759268Y-86902500D03*
X125259268Y-86902500D03*
X125759268Y-86902500D03*
X126259268Y-86902500D03*
X126759268Y-86902500D03*
X127259268Y-86902500D03*
X127759268Y-86902500D03*
X128259268Y-86902500D03*
X128759268Y-86902500D03*
X129259268Y-86902500D03*
X129759268Y-86902500D03*
X130259268Y-86902500D03*
X130759268Y-86902500D03*
X131259268Y-86902500D03*
D27*
X119509268Y-88027500D03*
D28*
X133509268Y-88027500D03*
%TD*%
D23*
%TO.C,mouse-bite-2.54mm-slot*%
X117940000Y-108910000D03*
X115740000Y-108910000D03*
X117940000Y-109710000D03*
X115740000Y-109710000D03*
X117940000Y-110510000D03*
X115740000Y-110510000D03*
%TD*%
D14*
%TO.C,R54*%
X55739268Y-99255000D03*
X55739268Y-101080000D03*
%TD*%
D29*
%TO.C,U12*%
X93537500Y-126577500D03*
X91537500Y-126577500D03*
X91037500Y-126577500D03*
X90537500Y-126577500D03*
X90037500Y-126577500D03*
X89537500Y-126577500D03*
X89037500Y-126577500D03*
X88537500Y-126577500D03*
X88037500Y-126577500D03*
D30*
X86625000Y-127990000D03*
X86625000Y-128490000D03*
X86625000Y-128990000D03*
X86625000Y-129490000D03*
X86625000Y-129990000D03*
X86625000Y-130490000D03*
X86625000Y-130990000D03*
X86625000Y-131990000D03*
X86625000Y-132490000D03*
X86625000Y-132990000D03*
X86625000Y-133490000D03*
D29*
X88037500Y-134902500D03*
X88537500Y-134902500D03*
X89037500Y-134902500D03*
X89537500Y-134902500D03*
X90037500Y-134902500D03*
X90537500Y-134902500D03*
X91037500Y-134902500D03*
X91537500Y-134902500D03*
X92037500Y-134902500D03*
X92537500Y-134902500D03*
X93037500Y-134902500D03*
X93537500Y-134902500D03*
D30*
X94950000Y-133490000D03*
X94950000Y-132490000D03*
X94950000Y-131990000D03*
X94950000Y-131490000D03*
X94950000Y-130990000D03*
X94950000Y-129990000D03*
X94950000Y-128490000D03*
X94950000Y-127990000D03*
%TD*%
D31*
%TO.C,R15*%
X93037500Y-151990000D03*
X94862500Y-151990000D03*
%TD*%
D15*
%TO.C,H12*%
X87950000Y-164240000D03*
%TD*%
D32*
%TO.C,JP2*%
X100400000Y-150240000D03*
D33*
X101700000Y-150240000D03*
%TD*%
D24*
%TO.C,C33*%
X103200000Y-158102500D03*
X103200000Y-156377500D03*
%TD*%
D13*
%TO.C,U16*%
X189589268Y-89932500D03*
D12*
X185239268Y-85282500D03*
X189039268Y-85282500D03*
D11*
X185869268Y-88032500D03*
X188409268Y-88032500D03*
X188409268Y-82532500D03*
X185869268Y-82532500D03*
%TD*%
D34*
%TO.C,J19*%
X99500000Y-134490000D03*
D17*
X99500000Y-136490000D03*
%TD*%
D35*
%TO.C,C11*%
X127685620Y-112701912D03*
D36*
X130185620Y-112701912D03*
%TD*%
D13*
%TO.C,U22*%
X166789268Y-83932500D03*
D12*
X162439268Y-79282500D03*
X166239268Y-79282500D03*
D11*
X163069268Y-82032500D03*
X165609268Y-82032500D03*
X165609268Y-76532500D03*
X163069268Y-76532500D03*
%TD*%
D14*
%TO.C,R63*%
X92149268Y-81990000D03*
X92149268Y-83815000D03*
%TD*%
D37*
%TO.C,D3*%
X138368000Y-154076912D03*
X138368000Y-155826912D03*
%TD*%
D23*
%TO.C,mouse-bite-2.54mm-slot*%
X117910000Y-152790000D03*
X115710000Y-152790000D03*
X117910000Y-153590000D03*
X115710000Y-153590000D03*
X117910000Y-154390000D03*
X115710000Y-154390000D03*
%TD*%
D38*
%TO.C,R78*%
X204119268Y-101240000D03*
X204119268Y-99415000D03*
%TD*%
D15*
%TO.C,H1*%
X128518000Y-154711912D03*
%TD*%
D38*
%TO.C,R28*%
X97700000Y-104652500D03*
X97700000Y-102827500D03*
%TD*%
D10*
%TO.C,D6*%
X120953000Y-136951912D03*
X119203000Y-136951912D03*
%TD*%
D39*
%TO.C,F4*%
X109625000Y-110490000D03*
X113775000Y-110490000D03*
%TD*%
D15*
%TO.C,H9*%
X112200000Y-164240000D03*
%TD*%
D40*
%TO.C,J5*%
X121368000Y-105951912D03*
D15*
X126368000Y-105951912D03*
%TD*%
D41*
%TO.C,SW5*%
X87450000Y-112172000D03*
X87450000Y-103672000D03*
%TD*%
D13*
%TO.C,U20*%
X143989268Y-77932500D03*
D12*
X139639268Y-73282500D03*
X143439268Y-73282500D03*
D11*
X140269268Y-76032500D03*
X142809268Y-76032500D03*
X142809268Y-70532500D03*
X140269268Y-70532500D03*
%TD*%
D14*
%TO.C,R66*%
X103529268Y-79047500D03*
X103529268Y-80872500D03*
%TD*%
D42*
%TO.C,J16*%
X137368000Y-117241912D03*
D43*
X137368000Y-114701912D03*
X137368000Y-112161912D03*
X137368000Y-109621912D03*
X137368000Y-107081912D03*
X137368000Y-104541912D03*
%TD*%
D24*
%TO.C,C25*%
X102950000Y-147602500D03*
X102950000Y-145877500D03*
%TD*%
D41*
%TO.C,SW9*%
X103200000Y-107308000D03*
X103200000Y-115808000D03*
%TD*%
D44*
%TO.C,C40*%
X111200000Y-155740000D03*
X109475000Y-155740000D03*
%TD*%
D45*
%TO.C,J11*%
X154598000Y-156361912D03*
D46*
X154598000Y-154361912D03*
%TD*%
D21*
%TO.C,SW6*%
X121860000Y-121130000D03*
X121860000Y-116430000D03*
X121860000Y-111730000D03*
%TD*%
D47*
%TO.C,J10*%
X83925000Y-126365000D03*
X83925000Y-126865000D03*
X83925000Y-127365000D03*
X83925000Y-127865000D03*
X83925000Y-128365000D03*
X83925000Y-128865000D03*
X83925000Y-129365000D03*
X83925000Y-129865000D03*
X83925000Y-130365000D03*
X83925000Y-130865000D03*
X83925000Y-131365000D03*
X83925000Y-131865000D03*
X83925000Y-132365000D03*
X83925000Y-132865000D03*
X83925000Y-133365000D03*
X83925000Y-133865000D03*
X83925000Y-134365000D03*
X83925000Y-134865000D03*
X83925000Y-135365000D03*
X83925000Y-135865000D03*
D48*
X82800000Y-124115000D03*
D49*
X82800000Y-138115000D03*
%TD*%
D14*
%TO.C,R84*%
X179939268Y-85117500D03*
X179939268Y-86942500D03*
%TD*%
D50*
%TO.C,J15*%
X92875000Y-104965000D03*
D15*
X92875000Y-109965000D03*
%TD*%
%TO.C,H10*%
X112200000Y-97990000D03*
%TD*%
D51*
%TO.C,J7*%
X163718000Y-132701912D03*
X163718000Y-132201912D03*
X163718000Y-131701912D03*
X163718000Y-131201912D03*
X163718000Y-130701912D03*
X163718000Y-130201912D03*
X163718000Y-129701912D03*
X163718000Y-129201912D03*
X163718000Y-128701912D03*
X163718000Y-128201912D03*
X163718000Y-127701912D03*
X163718000Y-127201912D03*
X163718000Y-126701912D03*
X163718000Y-126201912D03*
X163718000Y-125701912D03*
X163718000Y-125201912D03*
X163718000Y-124701912D03*
X163718000Y-124201912D03*
X163718000Y-123701912D03*
X163718000Y-123201912D03*
D52*
X164843000Y-134951912D03*
D53*
X164843000Y-120951912D03*
%TD*%
D31*
%TO.C,R8*%
X126705500Y-117201912D03*
X128530500Y-117201912D03*
%TD*%
D24*
%TO.C,C28*%
X99185000Y-104587500D03*
X99185000Y-102862500D03*
%TD*%
D54*
%TO.C,C15*%
X131543000Y-123451912D03*
X133268000Y-123451912D03*
%TD*%
D31*
%TO.C,R13*%
X87537500Y-114490000D03*
X89362500Y-114490000D03*
%TD*%
D55*
%TO.C,C34*%
X105700000Y-120740000D03*
D36*
X103200000Y-120740000D03*
%TD*%
D45*
%TO.C,SW1*%
X100450000Y-125990000D03*
D46*
X100450000Y-127990000D03*
X100450000Y-129990000D03*
%TD*%
D56*
%TO.C,J1*%
X87560000Y-155804900D03*
X93340000Y-155804900D03*
D57*
X89200000Y-154227700D03*
X90200000Y-154227700D03*
D58*
X90700000Y-154227700D03*
D57*
X91700000Y-154227700D03*
X92200000Y-154227700D03*
D58*
X91200000Y-154227700D03*
D57*
X89700000Y-154227700D03*
X88700000Y-154227700D03*
D59*
X87227000Y-154227700D03*
D60*
X93675000Y-154227700D03*
D61*
X86132000Y-155274900D03*
D62*
X86132000Y-159454900D03*
D61*
X94768000Y-155274900D03*
D62*
X94768000Y-159454900D03*
D63*
X88000000Y-154227700D03*
D60*
X92900000Y-154227700D03*
%TD*%
D64*
%TO.C,C20*%
X95200000Y-135377500D03*
X95200000Y-137102500D03*
%TD*%
D14*
%TO.C,R51*%
X52619268Y-121805000D03*
X52619268Y-123630000D03*
%TD*%
D23*
%TO.C,mouse-bite-2.54mm-slot*%
X132880000Y-95720000D03*
X132880000Y-93520000D03*
X132080000Y-95720000D03*
X132080000Y-93520000D03*
X131280000Y-95720000D03*
X131280000Y-93520000D03*
%TD*%
D14*
%TO.C,R69*%
X114969268Y-75980000D03*
X114969268Y-77805000D03*
%TD*%
D24*
%TO.C,C9*%
X96700000Y-126352500D03*
X96700000Y-124627500D03*
%TD*%
D64*
%TO.C,C31*%
X105200000Y-152127500D03*
X105200000Y-153852500D03*
%TD*%
D14*
%TO.C,R90*%
X145609268Y-75980000D03*
X145609268Y-77805000D03*
%TD*%
D13*
%TO.C,U9*%
X113174601Y-77911833D03*
D12*
X108824601Y-73261833D03*
X112624601Y-73261833D03*
D11*
X109454601Y-76011833D03*
X111994601Y-76011833D03*
X111994601Y-70511833D03*
X109454601Y-70511833D03*
%TD*%
D40*
%TO.C,J13*%
X107010000Y-104990000D03*
D15*
X112010000Y-104990000D03*
%TD*%
D21*
%TO.C,SW8*%
X121860000Y-124750000D03*
X121860000Y-129450000D03*
X121860000Y-134150000D03*
%TD*%
D45*
%TO.C,J2*%
X93950000Y-147490000D03*
D46*
X93950000Y-145490000D03*
X93950000Y-143490000D03*
X93950000Y-141490000D03*
%TD*%
D16*
%TO.C,J18*%
X158618000Y-100701912D03*
D17*
X158618000Y-98701912D03*
%TD*%
D24*
%TO.C,C27*%
X102950000Y-104852500D03*
X102950000Y-103127500D03*
%TD*%
D13*
%TO.C,U5*%
X67574601Y-89911833D03*
D12*
X63224601Y-85261833D03*
X67024601Y-85261833D03*
D11*
X63854601Y-88011833D03*
X66394601Y-88011833D03*
X66394601Y-82511833D03*
X63854601Y-82511833D03*
%TD*%
D15*
%TO.C,H11*%
X87950000Y-97990000D03*
%TD*%
D13*
%TO.C,U17*%
X202559268Y-103117500D03*
D12*
X198209268Y-98467500D03*
X202009268Y-98467500D03*
D11*
X198839268Y-101217500D03*
X201379268Y-101217500D03*
X201379268Y-95717500D03*
X198839268Y-95717500D03*
%TD*%
D23*
%TO.C,mouse-bite-2.54mm-slot*%
X117940000Y-129510000D03*
X115740000Y-129510000D03*
X117940000Y-130310000D03*
X115740000Y-130310000D03*
X117940000Y-131110000D03*
X115740000Y-131110000D03*
%TD*%
D13*
%TO.C,U4*%
X53989268Y-103117500D03*
D12*
X49639268Y-98467500D03*
X53439268Y-98467500D03*
D11*
X50269268Y-101217500D03*
X52809268Y-101217500D03*
X52809268Y-95717500D03*
X50269268Y-95717500D03*
%TD*%
D22*
%TO.C,SW3*%
X127936000Y-126451912D03*
X136436000Y-126451912D03*
%TD*%
D13*
%TO.C,U21*%
X155389268Y-80932500D03*
D12*
X151039268Y-76282500D03*
X154839268Y-76282500D03*
D11*
X151669268Y-79032500D03*
X154209268Y-79032500D03*
X154209268Y-73532500D03*
X151669268Y-73532500D03*
%TD*%
D43*
%TO.C,TB2*%
X98330000Y-140977000D03*
X98330000Y-143517000D03*
X98330000Y-146057000D03*
X98330000Y-148597000D03*
X98330000Y-151137000D03*
X98330000Y-153677000D03*
X98330000Y-156217000D03*
X98330000Y-158757000D03*
X113570000Y-140977000D03*
X113570000Y-143517000D03*
X113570000Y-146057000D03*
X113570000Y-148597000D03*
X113570000Y-151137000D03*
X113570000Y-153677000D03*
X113570000Y-156217000D03*
X113570000Y-158757000D03*
%TD*%
D10*
%TO.C,D28*%
X93325000Y-116490000D03*
X91575000Y-116490000D03*
%TD*%
D43*
%TO.C,TB1*%
X135618000Y-157361912D03*
X135618000Y-154821912D03*
X135618000Y-152281912D03*
X135618000Y-149741912D03*
X135618000Y-147201912D03*
X135618000Y-144661912D03*
X135618000Y-142121912D03*
X135618000Y-139581912D03*
X120378000Y-157361912D03*
X120378000Y-154821912D03*
X120378000Y-152281912D03*
X120378000Y-149741912D03*
X120378000Y-147201912D03*
X120378000Y-144661912D03*
X120378000Y-142121912D03*
X120378000Y-139581912D03*
%TD*%
D16*
%TO.C,J6*%
X104400000Y-136490000D03*
D17*
X104400000Y-134490000D03*
%TD*%
D14*
%TO.C,R87*%
X191319268Y-88080000D03*
X191319268Y-89905000D03*
%TD*%
D15*
%TO.C,H2*%
X149218000Y-154711912D03*
%TD*%
D34*
%TO.C,J8*%
X105450000Y-126990000D03*
D17*
X105450000Y-128990000D03*
%TD*%
D65*
%TO.C,BlackPill1*%
X158618000Y-107071912D03*
X158618000Y-109611912D03*
X158618000Y-112151912D03*
X158618000Y-114691912D03*
X158618000Y-117231912D03*
X158618000Y-119771912D03*
X158618000Y-122311912D03*
X158618000Y-124851912D03*
X158618000Y-127391912D03*
X158618000Y-129931912D03*
X158618000Y-132471912D03*
X158618000Y-135011912D03*
X158618000Y-137551912D03*
X158618000Y-140091912D03*
X158618000Y-142631912D03*
X158618000Y-145171912D03*
X158618000Y-147711912D03*
X158618000Y-150251912D03*
X158618000Y-152791912D03*
X158618000Y-155331912D03*
X143378000Y-107071912D03*
X143378000Y-109611912D03*
X143378000Y-112151912D03*
X143378000Y-114691912D03*
X143378000Y-117231912D03*
X143378000Y-119771912D03*
X143378000Y-122311912D03*
X143378000Y-124851912D03*
X143378000Y-127391912D03*
X143378000Y-129931912D03*
X143378000Y-132471912D03*
X143378000Y-135011912D03*
X143378000Y-137551912D03*
X143378000Y-140091912D03*
X143378000Y-142631912D03*
X143378000Y-145171912D03*
X143378000Y-147711912D03*
X143378000Y-150251912D03*
X143378000Y-152791912D03*
X143378000Y-155331912D03*
%TD*%
D24*
%TO.C,C10*%
X94950000Y-126102500D03*
X94950000Y-124377500D03*
%TD*%
D38*
%TO.C,R20*%
X96950000Y-108402500D03*
X96950000Y-106577500D03*
%TD*%
D66*
%TO.C,F3*%
X131868000Y-98451912D03*
X131868000Y-102601912D03*
%TD*%
D41*
%TO.C,SW10*%
X98950000Y-107308000D03*
X98950000Y-115808000D03*
%TD*%
D14*
%TO.C,R60*%
X80739268Y-85030000D03*
X80739268Y-86855000D03*
%TD*%
D15*
%TO.C,H4*%
X122368000Y-99451912D03*
%TD*%
D13*
%TO.C,U8*%
X101774601Y-80911833D03*
D12*
X97424601Y-76261833D03*
X101224601Y-76261833D03*
D11*
X98054601Y-79011833D03*
X100594601Y-79011833D03*
X100594601Y-73511833D03*
X98054601Y-73511833D03*
%TD*%
D42*
%TO.C,J17*%
X87450000Y-151110000D03*
D43*
X87450000Y-148570000D03*
X87450000Y-146030000D03*
X87450000Y-143490000D03*
X87450000Y-140950000D03*
X87450000Y-138410000D03*
%TD*%
D16*
%TO.C,J3*%
X127818000Y-133701912D03*
D17*
X127818000Y-131701912D03*
%TD*%
D20*
%TO.C,D4*%
X138368000Y-142951912D03*
X138368000Y-141201912D03*
%TD*%
D44*
%TO.C,C41*%
X111200000Y-157490000D03*
X109475000Y-157490000D03*
%TD*%
%TO.C,C26*%
X121329268Y-84827500D03*
X119604268Y-84827500D03*
%TD*%
D67*
%TO.C,U24*%
X128984268Y-84427500D03*
X128984268Y-83777500D03*
X128984268Y-83127500D03*
X128984268Y-82477500D03*
X128984268Y-81827500D03*
X128984268Y-81177500D03*
X128984268Y-80527500D03*
X128984268Y-79877500D03*
X128984268Y-79227500D03*
X128984268Y-78577500D03*
X128984268Y-77927500D03*
X128984268Y-77277500D03*
X123259268Y-77277500D03*
X123259268Y-77927500D03*
X123259268Y-78577500D03*
X123259268Y-79227500D03*
X123259268Y-79877500D03*
X123259268Y-80527500D03*
X123259268Y-81177500D03*
X123259268Y-81827500D03*
X123259268Y-82477500D03*
X123259268Y-83127500D03*
X123259268Y-83777500D03*
X123259268Y-84427500D03*
%TD*%
M02*
