M48
; DRILL file KiCad 10.0.0 date 2026-09-24T01:06:28
; FORMAT={-:-/ absolute / metric / decimal}
; #@! TF.CreationDate,2026-09-24T01:06:28+05:30
; #@! TF.GenerationSoftware,Kicad,Pcbnew,10.0.0
; #@! TF.FileFunction,Plated,1,2,PTH
FMAT,2
METRIC
; #@! TA.AperFunction,Plated,PTH,ViaDrill
T1C0.300
; #@! TA.AperFunction,Plated,PTH,ComponentDrill
T2C0.600
; #@! TA.AperFunction,Plated,PTH,ComponentDrill
T3C0.750
; #@! TA.AperFunction,Plated,PTH,ComponentDrill
T4C0.762
; #@! TA.AperFunction,Plated,PTH,ComponentDrill
T5C0.800
; #@! TA.AperFunction,Plated,PTH,ComponentDrill
T6C0.900
; #@! TA.AperFunction,Plated,PTH,ComponentDrill
T7C1.000
; #@! TA.AperFunction,Plated,PTH,ComponentDrill
T8C1.800
%
G90
G05
T1
X45.65Y-113.14
X45.72Y-107.52
X45.82Y-99.1
X45.9Y-101.39
X46.13Y-103.6
X46.509Y-105.487
X46.72Y-97.82
X47.17Y-100.83
X47.88Y-110.21
X48.48Y-104.9
X48.96Y-112.35
X49.05Y-117.78
X49.519Y-109.718
X50.68Y-109.62
X50.83Y-111.69
X50.99Y-107.11
X51.42Y-122.64
X52.389Y-120.167
X52.439Y-107.127
X52.439Y-112.897
X52.619Y-123.63
X53.739Y-110.328
X53.739Y-117.507
X54.6Y-87.67
X55.75Y-91.94
X56.43Y-97.11
X57.29Y-86.21
X57.33Y-94.7
X57.42Y-88.28
X58.11Y-92.47
X58.759Y-98.127
X58.96Y-85.34
X59.8Y-87.25
X59.82Y-95.41
X59.9Y-83.96
X60.0Y-93.43
X60.75Y-85.69
X61.839Y-95.237
X62.059Y-97.477
X62.17Y-92.25
X64.58Y-95.68
X64.749Y-92.417
X65.349Y-94.397
X67.13Y-94.51
X67.35Y-92.95
X68.17Y-78.95
X69.2Y-82.44
X69.64Y-85.94
X69.75Y-93.4
X69.99Y-92.21
X70.21Y-83.45
X70.24Y-78.51
X70.66Y-84.83
X71.099Y-79.347
X71.72Y-91.93
X71.85Y-88.87
X71.97Y-82.14
X72.13Y-84.27
X72.29Y-78.08
X74.05Y-88.87
X76.36Y-88.79
X77.779Y-88.167
X78.96Y-75.78
X79.85Y-129.8
X79.88Y-89.81
X80.125Y-127.465
X80.349Y-76.667
X80.6Y-88.69
X81.225Y-131.2
X81.625Y-129.365
X81.65Y-75.8
X81.674Y-133.416
X81.79Y-89.19
X81.809Y-81.417
X81.91Y-88.17
X82.09Y-127.42
X82.119Y-83.688
X82.18Y-135.1
X82.247Y-132.485
X82.264Y-128.883
X82.31Y-74.91
X82.405Y-130.185
X82.554Y-133.71
X82.82Y-126.965
X83.199Y-82.718
X83.29Y-88.57
X84.179Y-82.858
X84.963Y-128.556
X85.012Y-127.756
X85.084Y-129.347
X85.159Y-125.865
X85.22Y-87.99
X85.48Y-106.51
X85.56Y-152.15
X85.58Y-151.06
X85.7Y-113.24
X85.75Y-114.5
X85.78Y-111.84
X85.8Y-131.862
X85.805Y-124.795
X85.82Y-110.08
X85.92Y-107.92
X86.01Y-104.96
X86.03Y-102.04
X86.055Y-123.815
X86.105Y-153.345
X86.125Y-122.715
X86.145Y-138.755
X86.44Y-127.254
X86.73Y-124.56
X86.97Y-87.82
X86.97Y-118.56
X86.99Y-157.34
X87.24Y-110.09
X87.32Y-123.8
X87.388Y-134.49
X87.42Y-106.55
X87.48Y-158.03
X87.57Y-108.07
X87.587Y-112.49
X87.68Y-158.98
X87.703Y-120.445
X87.84Y-124.37
X87.85Y-117.01
X87.862Y-128.491
X87.938Y-136.129
X88.12Y-160.09
X88.337Y-133.24
X88.43Y-123.8
X88.47Y-118.55
X88.502Y-128.011
X88.66Y-87.64
X88.87Y-110.21
X88.94Y-160.43
X88.95Y-106.59
X89.2Y-157.077
X89.3Y-137.547
X89.45Y-131.602
X89.475Y-129.903
X89.48Y-116.98
X89.5Y-102.5
X89.616Y-128.479
X89.66Y-85.78
X89.66Y-149.28
X89.7Y-138.24
X89.74Y-118.53
X90.062Y-133.24
X90.1Y-139.24
X90.21Y-160.4
X90.41Y-150.75
X90.45Y-107.74
X90.47Y-109.53
X90.51Y-103.91
X90.56Y-73.47
X90.572Y-128.144
X90.59Y-106.26
X90.68Y-101.1
X90.69Y-145.05
X90.7Y-113.49
X90.7Y-143.74
X90.79Y-111.34
X90.9Y-138.679
X90.937Y-136.14
X91.02Y-118.53
X91.29Y-160.31
X91.5Y-119.48
X91.507Y-124.655
X91.537Y-116.49
X91.7Y-120.49
X91.787Y-133.24
X91.95Y-113.74
X91.962Y-128.74
X92.1Y-130.99
X92.2Y-72.98
X92.2Y-157.077
X92.21Y-78.47
X92.419Y-77.307
X92.56Y-118.57
X92.56Y-119.62
X92.61Y-127.44
X92.68Y-76.08
X92.7Y-132.465
X92.93Y-150.66
X92.969Y-79.328
X93.09Y-73.55
X93.125Y-139.965
X93.2Y-113.74
X93.24Y-160.07
X93.265Y-124.617
X93.45Y-136.865
X93.489Y-131.029
X93.6Y-158.54
X93.62Y-72.2
X93.68Y-78.14
X94.14Y-79.23
X94.19Y-118.52
X94.2Y-76.8
X94.45Y-113.74
X94.649Y-149.59
X94.785Y-153.345
X94.95Y-124.377
X95.135Y-139.375
X95.2Y-135.377
X95.33Y-118.51
X95.505Y-120.522
X95.51Y-110.66
X95.52Y-105.92
X95.53Y-108.8
X95.54Y-105.02
X95.54Y-107.84
X95.54Y-109.68
X95.56Y-106.84
X95.58Y-104.25
X95.59Y-140.46
X95.61Y-138.46
X95.62Y-103.38
X95.66Y-102.61
X95.95Y-143.99
X96.195Y-146.11
X96.249Y-82.697
X96.345Y-158.685
X96.43Y-118.42
X96.525Y-132.716
X96.79Y-144.89
X96.86Y-133.9
X96.955Y-106.652
X96.975Y-116.24
X97.15Y-83.63
X97.2Y-135.34
X97.399Y-127.565
X97.49Y-82.52
X97.7Y-104.652
X97.7Y-128.715
X98.075Y-126.327
X98.224Y-127.589
X98.395Y-139.255
X98.58Y-82.66
X98.75Y-138.19
X98.8Y-112.465
X98.825Y-126.05
X98.95Y-115.265
X99.185Y-102.862
X99.415Y-117.725
X99.492Y-131.725
X99.7Y-109.74
X100.07Y-159.34
X100.1Y-83.65
X100.195Y-124.075
X100.31Y-155.9
X100.32Y-115.49
X100.34Y-154.56
X100.399Y-82.767
X100.4Y-150.24
X100.45Y-142.99
X100.65Y-147.64
X100.7Y-133.22
X100.94Y-155.18
X100.95Y-104.652
X100.955Y-124.065
X101.11Y-116.46
X101.13Y-115.51
X101.13Y-117.29
X101.16Y-118.15
X101.42Y-156.1
X101.565Y-125.98
X101.6Y-144.24
X101.71Y-138.72
X101.73Y-137.75
X101.95Y-115.49
X102.29Y-135.84
X102.31Y-82.28
X102.36Y-134.82
X102.36Y-136.75
X102.57Y-154.21
X102.69Y-137.74
X102.7Y-138.94
X102.72Y-133.0
X102.825Y-124.275
X102.95Y-147.602
X102.95Y-158.39
X103.2Y-115.808
X103.2Y-143.74
X103.22Y-129.23
X103.32Y-130.83
X103.39Y-76.77
X103.71Y-154.19
X103.87Y-72.81
X104.05Y-150.02
X104.199Y-73.697
X104.21Y-132.41
X104.22Y-113.465
X104.29Y-77.59
X104.37Y-144.17
X104.42Y-105.09
X104.44Y-104.29
X104.45Y-103.49
X104.46Y-106.84
X104.49Y-102.71
X104.49Y-106.01
X104.615Y-113.07
X104.7Y-107.74
X104.7Y-109.328
X104.749Y-76.218
X104.98Y-145.1
X105.01Y-69.71
X105.01Y-75.14
X105.117Y-112.567
X105.12Y-130.99
X105.2Y-155.99
X105.25Y-147.64
X105.25Y-152.09
X105.44Y-73.65
X105.45Y-102.74
X105.54Y-79.66
X105.73Y-149.88
X105.78Y-110.4
X105.82Y-109.47
X105.93Y-83.06
X105.95Y-108.49
X106.19Y-158.05
X106.347Y-123.343
X106.36Y-155.62
X106.38Y-72.83
X106.519Y-74.858
X106.529Y-78.328
X106.61Y-132.81
X106.72Y-76.42
X106.84Y-116.28
X106.86Y-117.34
X106.89Y-115.18
X106.94Y-114.19
X106.98Y-153.81
X107.2Y-108.49
X107.2Y-156.24
X107.34Y-83.04
X107.41Y-153.01
X107.44Y-112.54
X107.47Y-113.29
X107.537Y-159.24
X107.56Y-125.26
X107.65Y-157.47
X107.69Y-154.29
X107.89Y-118.51
X107.94Y-114.2
X107.94Y-117.21
X107.96Y-116.26
X107.98Y-115.2
X108.103Y-68.496
X108.2Y-108.49
X108.64Y-126.7
X108.71Y-79.26
X108.835Y-111.125
X108.895Y-112.091
X108.93Y-83.082
X109.17Y-81.53
X109.235Y-111.525
X109.46Y-103.07
X109.47Y-125.42
X109.49Y-106.12
X109.5Y-103.95
X109.5Y-108.36
X109.55Y-104.95
X109.57Y-121.97
X109.58Y-107.48
X109.6Y-115.02
X109.63Y-116.77
X109.63Y-118.42
X109.69Y-111.99
X109.72Y-127.9
X110.6Y-83.02
X110.6Y-150.32
X110.689Y-79.828
X110.79Y-108.36
X110.95Y-151.49
X111.05Y-107.24
X111.13Y-125.79
X111.17Y-121.72
X111.43Y-116.63
X111.43Y-159.34
X111.69Y-154.35
X111.98Y-135.07
X112.03Y-152.07
X112.11Y-108.39
X112.55Y-79.82
X112.69Y-121.73
X113.36Y-82.98
X113.48Y-134.51
X113.64Y-76.89
X113.65Y-120.85
X113.71Y-75.92
X113.99Y-119.46
X114.24Y-138.11
X114.26Y-123.43
X114.38Y-121.84
X114.42Y-133.05
X114.42Y-136.09
X114.939Y-70.237
X115.149Y-82.177
X115.32Y-74.3
X115.689Y-72.917
X115.93Y-70.27
X116.71Y-74.13
X117.009Y-70.207
X117.309Y-73.377
X117.699Y-75.317
X118.028Y-85.695
X118.089Y-79.487
X118.12Y-70.29
X118.382Y-83.605
X118.46Y-82.809
X118.596Y-81.609
X118.859Y-85.677
X118.993Y-136.952
X119.09Y-124.24
X119.32Y-127.44
X119.41Y-117.5
X119.509Y-88.027
X119.51Y-77.33
X119.54Y-113.17
X119.604Y-84.828
X119.72Y-131.1
X120.238Y-82.015
X120.85Y-126.86
X120.86Y-109.45
X120.99Y-118.72
X121.08Y-89.002
X121.39Y-113.98
X121.94Y-131.69
X122.542Y-74.852
X122.768Y-85.252
X122.921Y-89.163
X123.296Y-85.852
X123.41Y-157.21
X123.538Y-155.322
X123.728Y-113.522
X124.0Y-124.28
X124.058Y-120.152
X124.189Y-78.602
X124.2Y-132.64
X124.267Y-76.704
X124.288Y-134.822
X124.338Y-130.022
X124.98Y-152.78
X125.006Y-85.401
X125.16Y-156.97
X125.22Y-76.808
X125.42Y-116.87
X125.491Y-87.92
X125.51Y-117.94
X125.56Y-119.0
X125.6Y-124.96
X125.71Y-120.15
X125.74Y-121.42
X125.75Y-122.45
X125.85Y-123.46
X126.039Y-78.138
X126.05Y-116.06
X126.224Y-90.722
X126.249Y-88.258
X126.639Y-84.638
X126.68Y-98.25
X126.71Y-124.89
X126.95Y-115.99
X127.0Y-101.28
X127.509Y-84.218
X127.695Y-73.591
X127.719Y-78.899
X127.728Y-89.458
X127.747Y-77.996
X127.747Y-81.049
X127.752Y-79.698
X127.78Y-124.65
X127.98Y-126.452
X128.109Y-85.317
X128.12Y-115.92
X128.12Y-150.02
X128.13Y-100.24
X128.173Y-88.165
X128.368Y-120.064
X128.47Y-124.15
X128.53Y-117.202
X128.62Y-98.3
X128.731Y-122.452
X128.833Y-89.203
X129.21Y-101.78
X129.38Y-124.1
X129.4Y-115.88
X129.603Y-85.358
X129.63Y-125.28
X129.648Y-148.552
X129.67Y-128.78
X129.71Y-127.82
X129.73Y-126.44
X130.18Y-115.93
X130.314Y-82.652
X130.8Y-150.19
X130.914Y-83.453
X131.02Y-115.92
X131.22Y-128.92
X131.543Y-123.452
X131.618Y-130.452
X131.628Y-109.622
X131.868Y-96.98
X131.868Y-97.7
X131.868Y-98.452
X131.958Y-152.602
X132.08Y-115.91
X132.226Y-77.737
X132.28Y-117.452
X132.318Y-128.84
X132.373Y-98.957
X132.46Y-145.52
X132.539Y-80.078
X132.618Y-149.122
X132.699Y-84.909
X132.98Y-151.37
X132.989Y-90.907
X133.02Y-115.53
X133.05Y-139.28
X133.14Y-142.58
X133.15Y-127.37
X133.17Y-128.93
X133.21Y-125.45
X133.268Y-123.452
X133.29Y-156.91
X133.299Y-85.506
X133.318Y-110.372
X133.32Y-154.53
X133.504Y-86.547
X133.53Y-78.167
X133.729Y-88.247
X133.868Y-121.777
X133.91Y-136.75
X134.028Y-107.032
X134.03Y-128.84
X134.049Y-76.337
X134.07Y-115.11
X134.197Y-78.977
X134.197Y-80.477
X134.264Y-86.297
X134.499Y-89.917
X134.586Y-82.173
X134.797Y-81.401
X135.03Y-129.1
X135.397Y-78.8
X136.039Y-79.278
X136.436Y-120.202
X136.895Y-124.982
X137.12Y-145.61
X137.356Y-134.922
X137.47Y-144.39
X137.74Y-74.19
X137.75Y-77.46
X137.78Y-72.45
X137.85Y-75.79
X137.97Y-70.69
X138.082Y-137.966
X138.36Y-144.74
X138.368Y-141.202
X138.368Y-155.952
X138.419Y-79.547
X138.586Y-127.702
X138.62Y-124.982
X138.918Y-151.662
X139.208Y-112.452
X139.53Y-143.73
X139.74Y-116.72
X139.74Y-119.44
X139.78Y-118.2
X139.8Y-114.99
X139.99Y-150.11
X140.02Y-140.12
X140.02Y-153.58
X140.06Y-102.68
X140.168Y-124.952
X140.38Y-138.65
X140.56Y-155.99
X140.61Y-132.67
X140.618Y-141.452
X141.218Y-151.512
X141.53Y-149.09
X141.618Y-130.976
X141.69Y-144.06
X141.92Y-154.3
X141.968Y-122.202
X141.968Y-123.102
X142.339Y-79.638
X142.76Y-157.89
X142.808Y-104.752
X143.839Y-80.927
X144.03Y-102.86
X144.23Y-133.86
X145.29Y-155.24
X145.43Y-157.0
X145.48Y-73.88
X145.7Y-143.98
X145.84Y-152.89
X145.88Y-121.4
X146.0Y-80.35
X146.02Y-71.23
X146.16Y-97.44
X146.218Y-116.702
X146.4Y-79.15
X146.43Y-140.01
X146.49Y-126.73
X146.55Y-136.39
X146.74Y-72.57
X146.9Y-132.82
X146.94Y-147.33
X146.958Y-150.482
X147.048Y-106.372
X147.06Y-74.23
X147.3Y-76.84
X147.65Y-80.28
X147.95Y-78.6
X147.96Y-102.95
X148.208Y-141.652
X148.28Y-74.77
X148.39Y-115.2
X148.6Y-113.69
X148.61Y-72.62
X148.63Y-117.03
X148.638Y-145.142
X148.79Y-76.43
X148.91Y-134.53
X149.01Y-80.59
X149.3Y-126.79
X149.588Y-137.732
X149.618Y-121.452
X149.728Y-108.422
X150.19Y-148.68
X150.46Y-133.65
X150.52Y-114.65
X150.55Y-110.26
X150.7Y-117.21
X150.79Y-140.28
X152.268Y-107.572
X152.33Y-145.85
X152.338Y-142.182
X152.481Y-116.702
X152.6Y-105.38
X152.69Y-130.8
X152.69Y-151.56
X152.85Y-84.87
X153.08Y-110.1
X153.288Y-134.982
X153.638Y-149.022
X154.08Y-120.74
X154.09Y-107.55
X154.11Y-139.13
X154.24Y-97.62
X154.25Y-133.23
X154.47Y-115.08
X154.74Y-117.64
X155.01Y-127.31
X155.118Y-119.702
X155.28Y-103.27
X155.298Y-105.812
X155.69Y-85.11
X156.5Y-124.73
X156.55Y-128.53
X156.86Y-76.54
X157.0Y-74.08
X157.08Y-75.46
X157.42Y-105.41
X157.68Y-85.72
X157.95Y-103.54
X158.41Y-76.49
X158.49Y-75.33
X158.55Y-79.65
X158.89Y-81.17
X158.949Y-85.547
X159.039Y-82.397
X159.37Y-86.83
X159.76Y-76.06
X160.1Y-79.35
X160.3Y-80.85
X160.46Y-76.82
X160.618Y-130.452
X160.64Y-75.29
X160.748Y-121.742
X160.78Y-112.74
X160.78Y-117.94
X160.84Y-86.56
X160.868Y-119.952
X160.87Y-104.65
X161.0Y-107.64
X161.05Y-150.2
X161.05Y-157.3
X161.298Y-142.502
X161.41Y-146.23
X161.41Y-154.36
X163.258Y-85.362
X164.34Y-79.16
X165.48Y-127.84
X165.51Y-129.53
X165.618Y-126.452
X167.1Y-86.29
X167.78Y-123.72
X167.798Y-128.282
X167.87Y-132.85
X167.899Y-87.057
X167.98Y-76.34
X168.17Y-80.08
X168.23Y-79.08
X169.52Y-85.85
X169.79Y-86.84
X170.589Y-79.858
X171.05Y-77.78
X171.159Y-87.078
X171.87Y-78.71
X173.669Y-88.807
X177.42Y-90.84
X179.089Y-90.858
X180.25Y-79.19
X180.26Y-91.63
X180.78Y-82.27
X181.839Y-90.858
X182.08Y-84.1
X182.26Y-92.55
X183.51Y-91.84
X184.9Y-93.8
X185.11Y-92.16
X187.3Y-95.72
X187.609Y-91.858
X187.709Y-94.277
X189.84Y-88.74
X190.129Y-96.938
X190.24Y-92.21
X190.559Y-94.587
X191.0Y-82.19
X192.24Y-83.51
X192.56Y-92.09
X192.979Y-99.647
X193.079Y-97.297
X193.31Y-94.35
X193.94Y-85.09
X194.49Y-89.47
X195.33Y-95.13
X195.63Y-86.85
X195.87Y-91.15
X196.189Y-100.287
X196.57Y-93.83
X197.1Y-88.37
X198.58Y-89.96
X201.18Y-113.77
X201.219Y-111.688
X201.249Y-107.218
X201.31Y-109.69
X201.82Y-105.05
X202.12Y-92.24
X202.31Y-110.13
X202.51Y-108.21
X202.758Y-96.819
X203.01Y-106.4
X203.32Y-109.98
X204.11Y-95.08
X206.1Y-97.82
X206.13Y-99.35
X206.39Y-102.57
X206.54Y-106.55
X206.58Y-104.41
X206.58Y-108.87
X206.68Y-107.81
X206.99Y-111.1
X207.22Y-112.39
X207.31Y-114.71
T3
X99.5Y-134.49
X99.5Y-136.49
X104.4Y-134.49
X104.4Y-136.49
X105.45Y-126.99
X105.45Y-128.99
X127.818Y-131.702
X127.818Y-133.702
X134.568Y-131.836
X134.568Y-133.836
X158.618Y-98.702
X158.618Y-100.702
T4
X143.378Y-107.072
X143.378Y-109.612
X143.378Y-112.152
X143.378Y-114.692
X143.378Y-117.232
X143.378Y-119.772
X143.378Y-122.312
X143.378Y-124.852
X143.378Y-127.392
X143.378Y-129.932
X143.378Y-132.472
X143.378Y-135.012
X143.378Y-137.552
X143.378Y-140.092
X143.378Y-142.632
X143.378Y-145.172
X143.378Y-147.712
X143.378Y-150.252
X143.378Y-152.792
X143.378Y-155.332
X158.618Y-107.072
X158.618Y-109.612
X158.618Y-112.152
X158.618Y-114.692
X158.618Y-117.232
X158.618Y-119.772
X158.618Y-122.312
X158.618Y-124.852
X158.618Y-127.392
X158.618Y-129.932
X158.618Y-132.472
X158.618Y-135.012
X158.618Y-137.552
X158.618Y-140.092
X158.618Y-142.632
X158.618Y-145.172
X158.618Y-147.712
X158.618Y-150.252
X158.618Y-152.792
X158.618Y-155.332
T5
X93.95Y-141.49
X93.95Y-143.49
X93.95Y-145.49
X93.95Y-147.49
X100.45Y-125.99
X100.45Y-127.99
X100.45Y-129.99
X103.2Y-120.74
X105.7Y-120.74
X127.686Y-112.702
X130.186Y-112.702
X154.598Y-154.362
X154.598Y-156.362
T6
X111.95Y-114.39
X111.95Y-119.09
X111.95Y-123.79
X111.95Y-127.74
X111.95Y-132.44
X111.95Y-137.14
X121.86Y-111.73
X121.86Y-116.43
X121.86Y-121.13
X121.86Y-124.75
X121.86Y-129.45
X121.86Y-134.15
T7
X47.259Y-116.457
X47.259Y-121.957
X49.799Y-116.457
X49.799Y-121.957
X50.269Y-95.718
X50.269Y-101.218
X52.809Y-95.718
X52.809Y-101.218
X63.855Y-82.512
X63.855Y-88.012
X66.395Y-82.512
X66.395Y-88.012
X75.255Y-79.512
X75.255Y-85.012
X77.795Y-79.512
X77.795Y-85.012
X86.655Y-76.512
X86.655Y-82.012
X87.45Y-138.41
X87.45Y-140.95
X87.45Y-143.49
X87.45Y-146.03
X87.45Y-148.57
X87.45Y-151.11
X89.195Y-76.512
X89.195Y-82.012
X98.055Y-73.512
X98.055Y-79.012
X98.33Y-140.977
X98.33Y-143.517
X98.33Y-146.057
X98.33Y-148.597
X98.33Y-151.137
X98.33Y-153.677
X98.33Y-156.217
X98.33Y-158.757
X100.595Y-73.512
X100.595Y-79.012
X109.455Y-70.512
X109.455Y-76.012
X111.995Y-70.512
X111.995Y-76.012
X113.57Y-140.977
X113.57Y-143.517
X113.57Y-146.057
X113.57Y-148.597
X113.57Y-151.137
X113.57Y-153.677
X113.57Y-156.217
X113.57Y-158.757
X120.378Y-139.582
X120.378Y-142.122
X120.378Y-144.662
X120.378Y-147.202
X120.378Y-149.742
X120.378Y-152.282
X120.378Y-154.822
X120.378Y-157.362
X120.855Y-67.512
X120.855Y-73.012
X123.395Y-67.512
X123.395Y-73.012
X128.869Y-67.532
X128.869Y-73.032
X131.409Y-67.532
X131.409Y-73.032
X135.618Y-139.582
X135.618Y-142.122
X135.618Y-144.662
X135.618Y-147.202
X135.618Y-149.742
X135.618Y-152.282
X135.618Y-154.822
X135.618Y-157.362
X137.368Y-104.542
X137.368Y-107.082
X137.368Y-109.622
X137.368Y-112.162
X137.368Y-114.702
X137.368Y-117.242
X140.269Y-70.532
X140.269Y-76.032
X142.809Y-70.532
X142.809Y-76.032
X151.669Y-73.532
X151.669Y-79.032
X154.209Y-73.532
X154.209Y-79.032
X163.069Y-76.532
X163.069Y-82.032
X165.609Y-76.532
X165.609Y-82.032
X174.469Y-79.532
X174.469Y-85.032
X177.009Y-79.532
X177.009Y-85.032
X185.869Y-82.532
X185.869Y-88.032
X188.409Y-82.532
X188.409Y-88.032
X198.839Y-95.718
X198.839Y-101.218
X201.379Y-95.718
X201.379Y-101.218
X203.29Y-116.46
X203.29Y-121.96
X205.83Y-116.46
X205.83Y-121.96
T8
X92.875Y-104.965
X92.875Y-109.965
X107.01Y-104.99
X112.01Y-104.99
X121.368Y-105.952
X126.368Y-105.952
X137.618Y-99.202
X142.618Y-99.202
T2
G00X86.132Y-154.725
M15
G01X86.132Y-155.825
M16
G05
G00X86.132Y-159.155
M15
G01X86.132Y-159.755
M16
G05
G00X94.768Y-154.725
M15
G01X94.768Y-155.825
M16
G05
G00X94.768Y-159.155
M15
G01X94.768Y-159.755
M16
G05
M30
