M48
; DRILL file KiCad 10.0.0 date 2026-09-22T00:10:16
; FORMAT={-:-/ absolute / metric / decimal}
; #@! TF.CreationDate,2026-09-22T00:10:16+05:30
; #@! TF.GenerationSoftware,Kicad,Pcbnew,10.0.0
; #@! TF.FileFunction,NonPlated,1,2,NPTH
FMAT,2
METRIC
; #@! TA.AperFunction,NonPlated,NPTH,ComponentDrill
T1C0.500
; #@! TA.AperFunction,NonPlated,NPTH,ComponentDrill
T2C0.650
; #@! TA.AperFunction,NonPlated,NPTH,ComponentDrill
T3C1.000
; #@! TA.AperFunction,NonPlated,NPTH,ComponentDrill
T4C2.500
; #@! TA.AperFunction,NonPlated,NPTH,ComponentDrill
T5C3.000
%
G90
G05
T1
X115.71Y-152.79
X115.71Y-153.59
X115.71Y-154.39
X115.74Y-108.91
X115.74Y-109.71
X115.74Y-110.51
X115.74Y-129.51
X115.74Y-130.31
X115.74Y-131.11
X117.91Y-152.79
X117.91Y-153.59
X117.91Y-154.39
X117.94Y-108.91
X117.94Y-109.71
X117.94Y-110.51
X117.94Y-129.51
X117.94Y-130.31
X117.94Y-131.11
X121.96Y-93.47
X121.96Y-95.67
X122.76Y-93.47
X122.76Y-95.67
X123.56Y-93.47
X123.56Y-95.67
X131.28Y-93.52
X131.28Y-95.72
X132.08Y-93.52
X132.08Y-95.72
X132.88Y-93.52
X132.88Y-95.72
T2
X87.56Y-155.805
X93.34Y-155.805
T3
X50.979Y-123.857
X53.989Y-103.117
X67.575Y-89.912
X78.975Y-86.912
X90.375Y-83.912
X101.775Y-80.912
X113.175Y-77.912
X124.575Y-74.912
X132.589Y-74.932
X143.989Y-77.932
X155.389Y-80.932
X166.789Y-83.932
X178.189Y-86.932
X189.589Y-89.932
X202.559Y-103.117
X207.01Y-123.86
T4
X46.629Y-119.207
X49.639Y-98.468
X50.429Y-119.207
X53.439Y-98.468
X63.225Y-85.262
X67.025Y-85.262
X74.625Y-82.262
X78.425Y-82.262
X86.025Y-79.262
X89.825Y-79.262
X97.425Y-76.262
X101.225Y-76.262
X108.825Y-73.262
X112.625Y-73.262
X120.225Y-70.262
X124.025Y-70.262
X128.239Y-70.282
X132.039Y-70.282
X139.639Y-73.282
X143.439Y-73.282
X151.039Y-76.282
X154.839Y-76.282
X162.439Y-79.282
X166.239Y-79.282
X173.839Y-82.282
X177.639Y-82.282
X185.239Y-85.282
X189.039Y-85.282
X198.209Y-98.468
X202.009Y-98.468
X202.66Y-119.21
X206.46Y-119.21
T5
X83.43Y-90.85
X87.95Y-97.99
X87.95Y-164.24
X90.12Y-90.12
X112.2Y-97.99
X112.2Y-164.24
X122.368Y-99.452
X128.518Y-154.712
X149.218Y-154.712
X149.868Y-99.452
X155.16Y-88.25
X161.8Y-89.19
M30
