%TF.GenerationSoftware,KiCad,Pcbnew,10.0.0*%
%TF.CreationDate,2026-09-22T00:10:11+05:30*%
%TF.ProjectId,LineFollowerGOAT,4c696e65-466f-46c6-9c6f-776572474f41,rev?*%
%TF.SameCoordinates,Original*%
%TF.FileFunction,Paste,Top*%
%TF.FilePolarity,Positive*%
%FSLAX46Y46*%
G04 Gerber Fmt 4.6, Leading zero omitted, Abs format (unit mm)*
G04 Created by KiCad (PCBNEW 10.0.0) date 2026-09-22 00:10:11*
%MOMM*%
%LPD*%
G01*
G04 APERTURE LIST*
G04 Aperture macros list*
%AMRoundRect*
0 Rectangle with rounded corners*
0 $1 Rounding radius*
0 $2 $3 $4 $5 $6 $7 $8 $9 X,Y pos of 4 corners*
0 Add a 4 corners polygon primitive as box body*
4,1,4,$2,$3,$4,$5,$6,$7,$8,$9,$2,$3,0*
0 Add four circle primitives for the rounded corners*
1,1,$1+$1,$2,$3*
1,1,$1+$1,$4,$5*
1,1,$1+$1,$6,$7*
1,1,$1+$1,$8,$9*
0 Add four rect primitives between the rounded corners*
20,1,$1+$1,$2,$3,$4,$5,0*
20,1,$1+$1,$4,$5,$6,$7,0*
20,1,$1+$1,$6,$7,$8,$9,0*
20,1,$1+$1,$8,$9,$2,$3,0*%
%AMFreePoly0*
4,1,7,1.050000,-0.975000,-0.250000,-0.975000,-0.250000,-0.625000,-1.050000,-0.625000,-1.050000,0.975000,1.050000,0.975000,1.050000,-0.975000,1.050000,-0.975000,$1*%
%AMFreePoly1*
4,1,7,1.050000,-0.625000,0.250000,-0.625000,0.250000,-0.975000,-1.050000,-0.975000,-1.050000,0.975000,1.050000,0.975000,1.050000,-0.625000,1.050000,-0.625000,$1*%
G04 Aperture macros list end*
%ADD10RoundRect,0.237500X-0.287500X-0.237500X0.287500X-0.237500X0.287500X0.237500X-0.287500X0.237500X0*%
%ADD11RoundRect,0.237500X0.237500X-0.287500X0.237500X0.287500X-0.237500X0.287500X-0.237500X-0.287500X0*%
%ADD12RoundRect,0.237500X-0.237500X0.250000X-0.237500X-0.250000X0.237500X-0.250000X0.237500X0.250000X0*%
%ADD13R,2.500000X1.500000*%
%ADD14RoundRect,0.237500X0.237500X-0.300000X0.237500X0.300000X-0.237500X0.300000X-0.237500X-0.300000X0*%
%ADD15RoundRect,0.250000X2.000000X0.750000X-2.000000X0.750000X-2.000000X-0.750000X2.000000X-0.750000X0*%
%ADD16RoundRect,0.075000X-0.075000X-0.475000X0.075000X-0.475000X0.075000X0.475000X-0.075000X0.475000X0*%
%ADD17FreePoly0,0.000000*%
%ADD18FreePoly1,0.000000*%
%ADD19RoundRect,0.075000X-0.075000X0.662500X-0.075000X-0.662500X0.075000X-0.662500X0.075000X0.662500X0*%
%ADD20RoundRect,0.075000X-0.662500X0.075000X-0.662500X-0.075000X0.662500X-0.075000X0.662500X0.075000X0*%
%ADD21RoundRect,0.237500X-0.250000X-0.237500X0.250000X-0.237500X0.250000X0.237500X-0.250000X0.237500X0*%
%ADD22RoundRect,0.237500X-0.237500X0.287500X-0.237500X-0.287500X0.237500X-0.287500X0.237500X0.287500X0*%
%ADD23RoundRect,0.237500X0.237500X-0.250000X0.237500X0.250000X-0.237500X0.250000X-0.237500X-0.250000X0*%
%ADD24RoundRect,0.237500X0.287500X0.237500X-0.287500X0.237500X-0.287500X-0.237500X0.287500X-0.237500X0*%
%ADD25RoundRect,0.249999X-0.525001X-0.900001X0.525001X-0.900001X0.525001X0.900001X-0.525001X0.900001X0*%
%ADD26R,1.500000X2.500000*%
%ADD27RoundRect,0.237500X0.300000X0.237500X-0.300000X0.237500X-0.300000X-0.237500X0.300000X-0.237500X0*%
%ADD28RoundRect,0.075000X-0.475000X0.075000X-0.475000X-0.075000X0.475000X-0.075000X0.475000X0.075000X0*%
%ADD29FreePoly0,270.000000*%
%ADD30FreePoly1,270.000000*%
%ADD31RoundRect,0.075000X0.475000X-0.075000X0.475000X0.075000X-0.475000X0.075000X-0.475000X-0.075000X0*%
%ADD32FreePoly0,90.000000*%
%ADD33FreePoly1,90.000000*%
%ADD34RoundRect,0.237500X-0.300000X-0.237500X0.300000X-0.237500X0.300000X0.237500X-0.300000X0.237500X0*%
%ADD35RoundRect,0.237500X-0.237500X0.300000X-0.237500X-0.300000X0.237500X-0.300000X0.237500X0.300000X0*%
%ADD36RoundRect,0.100000X0.637500X0.100000X-0.637500X0.100000X-0.637500X-0.100000X0.637500X-0.100000X0*%
%ADD37RoundRect,0.249999X-0.900001X0.525001X-0.900001X-0.525001X0.900001X-0.525001X0.900001X0.525001X0*%
%ADD38R,0.300000X1.767600*%
%ADD39R,0.604000X1.767600*%
%ADD40R,0.600000X1.767600*%
%ADD41O,1.000000X2.100000*%
%ADD42O,1.000000X1.600000*%
G04 APERTURE END LIST*
D10*
%TO.C,FB2*%
X91520000Y-124575000D03*
X93270000Y-124575000D03*
%TD*%
D11*
%TO.C,D26*%
X93450000Y-138615000D03*
X93450000Y-136865000D03*
%TD*%
D12*
%TO.C,R57*%
X69249268Y-88050000D03*
X69249268Y-89875000D03*
%TD*%
D13*
%TO.C,SW2*%
X127936000Y-120201912D03*
X136436000Y-120201912D03*
%TD*%
D12*
%TO.C,R96*%
X168439268Y-82170000D03*
X168439268Y-83995000D03*
%TD*%
D14*
%TO.C,C24*%
X100450000Y-147602500D03*
X100450000Y-145877500D03*
%TD*%
D15*
%TO.C,Y1*%
X96700000Y-120490000D03*
X88200000Y-120490000D03*
%TD*%
D12*
%TO.C,R93*%
X157129268Y-79150000D03*
X157129268Y-80975000D03*
%TD*%
D16*
%TO.C,J9*%
X121759268Y-86902500D03*
X122259268Y-86902500D03*
X122759268Y-86902500D03*
X123259268Y-86902500D03*
X123759268Y-86902500D03*
X124259268Y-86902500D03*
X124759268Y-86902500D03*
X125259268Y-86902500D03*
X125759268Y-86902500D03*
X126259268Y-86902500D03*
X126759268Y-86902500D03*
X127259268Y-86902500D03*
X127759268Y-86902500D03*
X128259268Y-86902500D03*
X128759268Y-86902500D03*
X129259268Y-86902500D03*
X129759268Y-86902500D03*
X130259268Y-86902500D03*
X130759268Y-86902500D03*
X131259268Y-86902500D03*
D17*
X119509268Y-88027500D03*
D18*
X133509268Y-88027500D03*
%TD*%
D12*
%TO.C,R54*%
X55739268Y-99255000D03*
X55739268Y-101080000D03*
%TD*%
D19*
%TO.C,U12*%
X93537500Y-126577500D03*
X91537500Y-126577500D03*
X91037500Y-126577500D03*
X90537500Y-126577500D03*
X90037500Y-126577500D03*
X89537500Y-126577500D03*
X89037500Y-126577500D03*
X88537500Y-126577500D03*
X88037500Y-126577500D03*
D20*
X86625000Y-127990000D03*
X86625000Y-128490000D03*
X86625000Y-128990000D03*
X86625000Y-129490000D03*
X86625000Y-129990000D03*
X86625000Y-130490000D03*
X86625000Y-130990000D03*
X86625000Y-131990000D03*
X86625000Y-132490000D03*
X86625000Y-132990000D03*
X86625000Y-133490000D03*
D19*
X88037500Y-134902500D03*
X88537500Y-134902500D03*
X89037500Y-134902500D03*
X89537500Y-134902500D03*
X90037500Y-134902500D03*
X90537500Y-134902500D03*
X91037500Y-134902500D03*
X91537500Y-134902500D03*
X92037500Y-134902500D03*
X92537500Y-134902500D03*
X93037500Y-134902500D03*
X93537500Y-134902500D03*
D20*
X94950000Y-133490000D03*
X94950000Y-132490000D03*
X94950000Y-131990000D03*
X94950000Y-131490000D03*
X94950000Y-130990000D03*
X94950000Y-129990000D03*
X94950000Y-128490000D03*
X94950000Y-127990000D03*
%TD*%
D21*
%TO.C,R15*%
X93037500Y-151990000D03*
X94862500Y-151990000D03*
%TD*%
D14*
%TO.C,C33*%
X103200000Y-158102500D03*
X103200000Y-156377500D03*
%TD*%
D12*
%TO.C,R63*%
X92149268Y-81990000D03*
X92149268Y-83815000D03*
%TD*%
D22*
%TO.C,D3*%
X138368000Y-154076912D03*
X138368000Y-155826912D03*
%TD*%
D23*
%TO.C,R78*%
X204119268Y-101240000D03*
X204119268Y-99415000D03*
%TD*%
%TO.C,R28*%
X97700000Y-104652500D03*
X97700000Y-102827500D03*
%TD*%
D24*
%TO.C,D6*%
X120953000Y-136951912D03*
X119203000Y-136951912D03*
%TD*%
D25*
%TO.C,F4*%
X109625000Y-110490000D03*
X113775000Y-110490000D03*
%TD*%
D26*
%TO.C,SW5*%
X87450000Y-112172000D03*
X87450000Y-103672000D03*
%TD*%
D12*
%TO.C,R66*%
X103529268Y-79047500D03*
X103529268Y-80872500D03*
%TD*%
D14*
%TO.C,C25*%
X102950000Y-147602500D03*
X102950000Y-145877500D03*
%TD*%
D26*
%TO.C,SW9*%
X103200000Y-107308000D03*
X103200000Y-115808000D03*
%TD*%
D27*
%TO.C,C40*%
X111200000Y-155740000D03*
X109475000Y-155740000D03*
%TD*%
D28*
%TO.C,J10*%
X83925000Y-126365000D03*
X83925000Y-126865000D03*
X83925000Y-127365000D03*
X83925000Y-127865000D03*
X83925000Y-128365000D03*
X83925000Y-128865000D03*
X83925000Y-129365000D03*
X83925000Y-129865000D03*
X83925000Y-130365000D03*
X83925000Y-130865000D03*
X83925000Y-131365000D03*
X83925000Y-131865000D03*
X83925000Y-132365000D03*
X83925000Y-132865000D03*
X83925000Y-133365000D03*
X83925000Y-133865000D03*
X83925000Y-134365000D03*
X83925000Y-134865000D03*
X83925000Y-135365000D03*
X83925000Y-135865000D03*
D29*
X82800000Y-124115000D03*
D30*
X82800000Y-138115000D03*
%TD*%
D12*
%TO.C,R84*%
X179939268Y-85117500D03*
X179939268Y-86942500D03*
%TD*%
D31*
%TO.C,J7*%
X163718000Y-132701912D03*
X163718000Y-132201912D03*
X163718000Y-131701912D03*
X163718000Y-131201912D03*
X163718000Y-130701912D03*
X163718000Y-130201912D03*
X163718000Y-129701912D03*
X163718000Y-129201912D03*
X163718000Y-128701912D03*
X163718000Y-128201912D03*
X163718000Y-127701912D03*
X163718000Y-127201912D03*
X163718000Y-126701912D03*
X163718000Y-126201912D03*
X163718000Y-125701912D03*
X163718000Y-125201912D03*
X163718000Y-124701912D03*
X163718000Y-124201912D03*
X163718000Y-123701912D03*
X163718000Y-123201912D03*
D32*
X164843000Y-134951912D03*
D33*
X164843000Y-120951912D03*
%TD*%
D21*
%TO.C,R8*%
X126705500Y-117201912D03*
X128530500Y-117201912D03*
%TD*%
D14*
%TO.C,C28*%
X99185000Y-104587500D03*
X99185000Y-102862500D03*
%TD*%
D34*
%TO.C,C15*%
X131543000Y-123451912D03*
X133268000Y-123451912D03*
%TD*%
D24*
%TO.C,D25*%
X109450000Y-159240000D03*
X107700000Y-159240000D03*
%TD*%
D21*
%TO.C,R13*%
X87537500Y-114490000D03*
X89362500Y-114490000D03*
%TD*%
D35*
%TO.C,C20*%
X95200000Y-135377500D03*
X95200000Y-137102500D03*
%TD*%
D12*
%TO.C,R51*%
X52619268Y-121805000D03*
X52619268Y-123630000D03*
%TD*%
%TO.C,R75*%
X134149268Y-73077500D03*
X134149268Y-74902500D03*
%TD*%
%TO.C,R69*%
X114969268Y-75980000D03*
X114969268Y-77805000D03*
%TD*%
D14*
%TO.C,C9*%
X96700000Y-126352500D03*
X96700000Y-124627500D03*
%TD*%
D35*
%TO.C,C31*%
X105200000Y-152127500D03*
X105200000Y-153852500D03*
%TD*%
D12*
%TO.C,R90*%
X145609268Y-75980000D03*
X145609268Y-77805000D03*
%TD*%
D14*
%TO.C,C27*%
X102950000Y-104852500D03*
X102950000Y-103127500D03*
%TD*%
D13*
%TO.C,SW3*%
X127936000Y-126451912D03*
X136436000Y-126451912D03*
%TD*%
D24*
%TO.C,D28*%
X93325000Y-116490000D03*
X91575000Y-116490000D03*
%TD*%
D36*
%TO.C,U24*%
X128984268Y-84427500D03*
X128984268Y-83777500D03*
X128984268Y-83127500D03*
X128984268Y-82477500D03*
X128984268Y-81827500D03*
X128984268Y-81177500D03*
X128984268Y-80527500D03*
X128984268Y-79877500D03*
X128984268Y-79227500D03*
X128984268Y-78577500D03*
X128984268Y-77927500D03*
X128984268Y-77277500D03*
X123259268Y-77277500D03*
X123259268Y-77927500D03*
X123259268Y-78577500D03*
X123259268Y-79227500D03*
X123259268Y-79877500D03*
X123259268Y-80527500D03*
X123259268Y-81177500D03*
X123259268Y-81827500D03*
X123259268Y-82477500D03*
X123259268Y-83127500D03*
X123259268Y-83777500D03*
X123259268Y-84427500D03*
%TD*%
D12*
%TO.C,R87*%
X191319268Y-88080000D03*
X191319268Y-89905000D03*
%TD*%
%TO.C,R72*%
X126089268Y-73040000D03*
X126089268Y-74865000D03*
%TD*%
D14*
%TO.C,C10*%
X94950000Y-126102500D03*
X94950000Y-124377500D03*
%TD*%
D23*
%TO.C,R20*%
X96950000Y-108402500D03*
X96950000Y-106577500D03*
%TD*%
D37*
%TO.C,F3*%
X131868000Y-98451912D03*
X131868000Y-102601912D03*
%TD*%
D26*
%TO.C,SW10*%
X98950000Y-107308000D03*
X98950000Y-115808000D03*
%TD*%
D12*
%TO.C,R60*%
X80739268Y-85030000D03*
X80739268Y-86855000D03*
%TD*%
D11*
%TO.C,D4*%
X138368000Y-142951912D03*
X138368000Y-141201912D03*
%TD*%
D27*
%TO.C,C41*%
X111200000Y-157490000D03*
X109475000Y-157490000D03*
%TD*%
%TO.C,C26*%
X121329268Y-84827500D03*
X119604268Y-84827500D03*
%TD*%
D38*
%TO.C,J1*%
X89200000Y-154227700D03*
X90200000Y-154227700D03*
X90700000Y-154227700D03*
X91700000Y-154227700D03*
X92200000Y-154227700D03*
X91200000Y-154227700D03*
X89700000Y-154227700D03*
X88700000Y-154227700D03*
D39*
X87227000Y-154227700D03*
D40*
X93675000Y-154227700D03*
D41*
X86132000Y-155274900D03*
D42*
X86132000Y-159454900D03*
D41*
X94768000Y-155274900D03*
D42*
X94768000Y-159454900D03*
D40*
X88000000Y-154227700D03*
X92900000Y-154227700D03*
%TD*%
M02*
